<svg width="30" height="20" viewBox="0 0 30 20" fill="none" xmlns="http://www.w3.org/2000/svg">
<path fill-rule="evenodd" clip-rule="evenodd" d="M22.9999 20H13.5H4.5001C4.50007 20 4.50003 20 4.5 20C2.01472 20 0 17.4816 0 14.375C0 11.2684 2.01472 8.75 4.5 8.75C4.86067 8.75 5.21143 8.80304 5.54757 8.90322C5.98452 3.89638 9.37824 0 13.5 0C15.9622 0 18.1646 1.39041 19.6321 3.57736C20.6313 2.89064 21.7791 2.5 22.9999 2.5C26.8659 2.5 29.9999 6.41751 29.9999 11.25C29.9999 16.0824 26.866 19.9999 23.0001 20C23 20 23 20 22.9999 20Z" fill="#D9D9D9"/>
</svg>
