<svg width="75" height="52" viewBox="0 0 75 52" fill="none" xmlns="http://www.w3.org/2000/svg">
<path fill-rule="evenodd" clip-rule="evenodd" d="M26.2929 8H3C2.44772 8 2 8.44772 2 9V43C2 43.5523 2.44772 44 3 44H33C33.5523 44 34 43.5523 34 43V15.7071L33.6464 15.3536L26.6464 8.35355L26.2929 8ZM33.5 13.7929L28.2071 8.5H33.5V13.7929Z" fill="#838383" fill-opacity="0.9"/>
<path d="M6 21C6 19.8954 6.89543 19 8 19H28C29.1046 19 30 19.8954 30 21V39C30 40.1046 29.1046 41 28 41H8C6.89543 41 6 40.1046 6 39V21Z" fill="#D9D9D9" fill-opacity="0.8"/>
<g style="mix-blend-mode:exclusion">
<path d="M14.044 26.2727V35H14.8409V26.2727H14.044Z" fill="#838383"/>
</g>
<path fill-rule="evenodd" clip-rule="evenodd" d="M43.2929 5H19C18.4477 5 18 5.44772 18 6V46C18 46.5523 18.4477 47 19 47H51C51.5523 47 52 46.5523 52 46V13.7071L51.6464 13.3536L43.6464 5.35355L43.2929 5ZM51.5 11.7929L45.2071 5.5H51.5V11.7929Z" fill="#9E9E9E" fill-opacity="0.7"/>
<rect x="22" y="17" width="26" height="26" rx="2" fill="#D9D9D9" fill-opacity="0.8"/>
<g style="mix-blend-mode:exclusion">
<path d="M28.3523 25.8182H29.4261L33.12 34.6875H33.2095L36.9034 25.8182H37.9773V36H37.1023V27.782H37.0227L33.5874 36H32.7422L29.3068 27.782H29.2273V36H28.3523V25.8182Z" fill="#838383"/>
</g>
<rect x="41" y="15" width="27" height="30" rx="2" fill="#D9D9D9"/>
<path fill-rule="evenodd" clip-rule="evenodd" d="M62.2929 2H37C36.4477 2 36 2.44771 36 3V49C36 49.5523 36.4477 50 37 50H72C72.5523 50 73 49.5523 73 49V12.7071L72.6464 12.3536L62.6464 2.35355L62.2929 2ZM72.5 10.7929L64.2071 2.5H72.5V10.7929Z" fill="#D9D9D9" fill-opacity="0.6"/>
<g style="mix-blend-mode:exclusion">
<path d="M51.5455 37V25.3636H58.2955V26.3182H52.608V30.6989H57.9375V31.6534H52.608V36.0455H58.4091V37H51.5455Z" fill="#838383"/>
</g>
</svg>
