<svg width="225" height="63" viewBox="0 0 225 63" fill="none" xmlns="http://www.w3.org/2000/svg">
<path d="M84.5568 43V19.7273H98.9886V22.75H88.0682V29.8409H97.9545V32.8523H88.0682V43H84.5568ZM102.682 43V25.5455H107.523V43H102.682ZM105.114 23.2955C104.394 23.2955 103.777 23.0568 103.261 22.5795C102.754 22.0947 102.5 21.5152 102.5 20.8409C102.5 20.1742 102.754 19.6023 103.261 19.125C103.777 18.6402 104.394 18.3977 105.114 18.3977C105.833 18.3977 106.447 18.6402 106.955 19.125C107.47 19.6023 107.727 20.1742 107.727 20.8409C107.727 21.5152 107.47 22.0947 106.955 22.5795C106.447 23.0568 105.833 23.2955 105.114 23.2955ZM116.241 19.7273V43H111.401V19.7273H116.241ZM128.074 43.3409C126.278 43.3409 124.733 42.9773 123.438 42.25C122.15 41.5152 121.157 40.4773 120.46 39.1364C119.763 37.7879 119.415 36.1932 119.415 34.3523C119.415 32.5568 119.763 30.9811 120.46 29.625C121.157 28.2689 122.138 27.2121 123.403 26.4545C124.676 25.697 126.169 25.3182 127.881 25.3182C129.032 25.3182 130.104 25.5038 131.097 25.875C132.097 26.2386 132.968 26.7879 133.71 27.5227C134.46 28.2576 135.044 29.1818 135.46 30.2955C135.877 31.4015 136.085 32.697 136.085 34.1818V35.5114H121.347V32.5114H131.528C131.528 31.8144 131.377 31.197 131.074 30.6591C130.771 30.1212 130.35 29.7008 129.812 29.3977C129.282 29.0871 128.665 28.9318 127.96 28.9318C127.225 28.9318 126.574 29.1023 126.006 29.4432C125.445 29.7765 125.006 30.2273 124.688 30.7955C124.369 31.3561 124.206 31.9811 124.199 32.6705V35.5227C124.199 36.3864 124.358 37.1326 124.676 37.7614C125.002 38.3902 125.46 38.875 126.051 39.2159C126.642 39.5568 127.343 39.7273 128.153 39.7273C128.691 39.7273 129.184 39.6515 129.631 39.5C130.078 39.3485 130.46 39.1212 130.778 38.8182C131.097 38.5152 131.339 38.1439 131.506 37.7045L135.983 38C135.756 39.0758 135.29 40.0152 134.585 40.8182C133.888 41.6136 132.987 42.2348 131.881 42.6818C130.782 43.1212 129.513 43.3409 128.074 43.3409ZM153.222 25.5455C153.1 24.0985 152.509 22.928 151.449 22.0341C150.396 21.1402 149.032 20.6932 147.358 20.6932C146.229 20.6932 145.225 20.9015 144.347 21.3182C143.468 21.7348 142.778 22.303 142.278 23.0227C141.778 23.7424 141.528 24.5682 141.528 25.5C141.528 26.0985 141.642 26.6402 141.869 27.125C142.104 27.6023 142.434 28.0303 142.858 28.4091C143.282 28.7803 143.786 29.1061 144.369 29.3864C144.953 29.6667 145.597 29.9129 146.301 30.125L148.847 30.875C149.718 31.1402 150.521 31.447 151.256 31.7955C151.998 32.1439 152.642 32.5606 153.188 33.0455C153.741 33.5227 154.169 34.0833 154.472 34.7273C154.782 35.3712 154.938 36.1136 154.938 36.9545C154.938 38.1818 154.619 39.2803 153.983 40.25C153.354 41.2197 152.456 41.9848 151.29 42.5455C150.131 43.0985 148.763 43.375 147.188 43.375C145.688 43.375 144.381 43.1212 143.267 42.6136C142.161 42.1061 141.286 41.4015 140.642 40.5C139.998 39.5909 139.634 38.5455 139.551 37.3636H141.006C141.081 38.3258 141.388 39.1591 141.926 39.8636C142.472 40.5606 143.195 41.0985 144.097 41.4773C144.998 41.8561 146.028 42.0455 147.188 42.0455C148.438 42.0455 149.54 41.8333 150.494 41.4091C151.449 40.9773 152.195 40.3788 152.733 39.6136C153.271 38.8485 153.54 37.9583 153.54 36.9432C153.54 36.125 153.347 35.4242 152.96 34.8409C152.574 34.2576 152.002 33.7538 151.244 33.3295C150.494 32.9053 149.563 32.5265 148.449 32.1932L145.733 31.375C143.915 30.822 142.525 30.0682 141.562 29.1136C140.608 28.1591 140.131 26.9697 140.131 25.5455C140.131 24.3485 140.449 23.2879 141.085 22.3636C141.722 21.4318 142.585 20.7008 143.676 20.1705C144.775 19.6402 146.013 19.375 147.392 19.375C148.778 19.375 150.002 19.6439 151.062 20.1818C152.123 20.7121 152.964 21.4432 153.585 22.375C154.206 23.2992 154.551 24.3561 154.619 25.5455H153.222ZM166.233 25.5455V26.7841H158.608V25.5455H166.233ZM161.188 21.3636H162.562V38.875C162.562 39.5871 162.699 40.1705 162.972 40.625C163.252 41.072 163.616 41.4053 164.062 41.625C164.517 41.8371 165.002 41.9432 165.517 41.9432C165.767 41.9432 165.983 41.9242 166.165 41.8864C166.354 41.8485 166.532 41.7992 166.699 41.7386L167.04 43C166.828 43.0758 166.593 43.1402 166.335 43.1932C166.078 43.2538 165.775 43.2841 165.426 43.2841C164.699 43.2841 164.009 43.1212 163.358 42.7955C162.714 42.4697 162.191 41.9962 161.79 41.375C161.388 40.7538 161.188 40.0038 161.188 39.125V21.3636ZM176 43.375C174.992 43.375 174.068 43.1742 173.227 42.7727C172.394 42.3712 171.723 41.7841 171.216 41.0114C170.716 40.2386 170.466 39.2992 170.466 38.1932C170.466 37.4659 170.595 36.8258 170.852 36.2727C171.11 35.7197 171.508 35.2424 172.045 34.8409C172.583 34.4394 173.273 34.1098 174.114 33.8523C174.955 33.5871 175.958 33.3826 177.125 33.2386C178.011 33.1326 178.803 33.0303 179.5 32.9318C180.197 32.8258 180.742 32.6629 181.136 32.4432C181.538 32.2235 181.739 31.8902 181.739 31.4432V30.7159C181.739 29.4432 181.337 28.4318 180.534 27.6818C179.731 26.9318 178.625 26.5568 177.216 26.5568C175.966 26.5568 174.913 26.8333 174.057 27.3864C173.208 27.9318 172.614 28.6364 172.273 29.5L170.966 29.0114C171.299 28.178 171.78 27.4848 172.409 26.9318C173.045 26.3788 173.773 25.9659 174.591 25.6932C175.417 25.4205 176.28 25.2841 177.182 25.2841C177.962 25.2841 178.705 25.3939 179.409 25.6136C180.121 25.8333 180.754 26.1667 181.307 26.6136C181.867 27.0606 182.311 27.6326 182.636 28.3295C182.962 29.0189 183.125 29.8447 183.125 30.8068V43H181.739V39.8523H181.636C181.333 40.5038 180.917 41.0985 180.386 41.6364C179.864 42.1667 179.231 42.5909 178.489 42.9091C177.754 43.2197 176.924 43.375 176 43.375ZM176.136 42.0909C177.227 42.0909 178.193 41.8258 179.034 41.2955C179.883 40.7576 180.545 40.0227 181.023 39.0909C181.5 38.1591 181.739 37.1023 181.739 35.9205V33.3523C181.564 33.5038 181.311 33.6402 180.977 33.7614C180.652 33.875 180.28 33.9773 179.864 34.0682C179.455 34.1515 179.023 34.2273 178.568 34.2955C178.121 34.3561 177.686 34.4129 177.261 34.4659C175.989 34.6174 174.951 34.8523 174.148 35.1705C173.352 35.4811 172.769 35.8902 172.398 36.3977C172.034 36.9053 171.852 37.5189 171.852 38.2386C171.852 39.428 172.261 40.3674 173.08 41.0568C173.898 41.7462 174.917 42.0909 176.136 42.0909ZM195.483 43.3636C193.998 43.3636 192.691 42.9735 191.562 42.1932C190.434 41.4053 189.551 40.3295 188.915 38.9659C188.286 37.6023 187.972 36.0568 187.972 34.3295C187.972 32.6023 188.29 31.0568 188.926 29.6932C189.563 28.3295 190.445 27.2538 191.574 26.4659C192.703 25.678 194.002 25.2841 195.472 25.2841C196.578 25.2841 197.585 25.5114 198.494 25.9659C199.411 26.4205 200.169 27.053 200.767 27.8636C201.373 28.6742 201.759 29.6136 201.926 30.6818H200.517C200.29 29.5 199.722 28.5227 198.812 27.75C197.911 26.9697 196.801 26.5795 195.483 26.5795C194.301 26.5795 193.248 26.9129 192.324 27.5795C191.4 28.2386 190.672 29.1515 190.142 30.3182C189.612 31.4773 189.347 32.8068 189.347 34.3068C189.347 35.7841 189.604 37.1098 190.119 38.2841C190.634 39.4508 191.354 40.375 192.278 41.0568C193.203 41.7386 194.271 42.0795 195.483 42.0795C196.339 42.0795 197.119 41.9091 197.824 41.5682C198.536 41.2273 199.131 40.7424 199.608 40.1136C200.085 39.4848 200.4 38.75 200.551 37.9091H201.96C201.794 38.9848 201.415 39.9318 200.824 40.75C200.233 41.5682 199.479 42.2083 198.562 42.6705C197.646 43.1326 196.619 43.3636 195.483 43.3636ZM207.892 36.1818L207.869 34.1932H208.233L216.96 25.5455H218.767L210.756 33.5L210.619 33.5568L207.892 36.1818ZM206.688 43V19.7273H208.074V43H206.688ZM217.358 43L209.994 33.6932L210.994 32.7727L219.131 43H217.358Z" fill="white"/>
<path fill-rule="evenodd" clip-rule="evenodd" d="M29.2929 13H6C5.44772 13 5 13.4477 5 14V48C5 48.5523 5.44772 49 6 49H36C36.5523 49 37 48.5523 37 48V20.7071L36.6464 20.3536L29.6464 13.3536L29.2929 13ZM36.5 18.7929L31.2071 13.5H36.5V18.7929Z" fill="#838383" fill-opacity="0.9"/>
<path d="M9 26C9 24.8954 9.89543 24 11 24H31C32.1046 24 33 24.8954 33 26V44C33 45.1046 32.1046 46 31 46H11C9.89543 46 9 45.1046 9 44V26Z" fill="#D9D9D9" fill-opacity="0.8"/>
<g style="mix-blend-mode:exclusion">
<path d="M17.044 31.2727V40H17.8409V31.2727H17.044Z" fill="#838383"/>
</g>
<path fill-rule="evenodd" clip-rule="evenodd" d="M46.2929 10H22C21.4477 10 21 10.4477 21 11V51C21 51.5523 21.4477 52 22 52H54C54.5523 52 55 51.5523 55 51V18.7071L54.6464 18.3536L46.6464 10.3536L46.2929 10ZM54.5 16.7929L48.2071 10.5H54.5V16.7929Z" fill="#9E9E9E" fill-opacity="0.7"/>
<rect x="25" y="22" width="26" height="26" rx="2" fill="#D9D9D9" fill-opacity="0.8"/>
<g style="mix-blend-mode:exclusion">
<path d="M31.3523 30.8182H32.4261L36.12 39.6875H36.2095L39.9034 30.8182H40.9773V41H40.1023V32.782H40.0227L36.5874 41H35.7422L32.3068 32.782H32.2273V41H31.3523V30.8182Z" fill="#838383"/>
</g>
<rect x="44" y="20" width="27" height="30" rx="2" fill="#D9D9D9"/>
<path fill-rule="evenodd" clip-rule="evenodd" d="M65.2929 7H40C39.4477 7 39 7.44771 39 8V54C39 54.5523 39.4477 55 40 55H75C75.5523 55 76 54.5523 76 54V17.7071L75.6464 17.3536L65.6464 7.35355L65.2929 7ZM75.5 15.7929L67.2071 7.5H75.5V15.7929Z" fill="#D9D9D9" fill-opacity="0.6"/>
<g style="mix-blend-mode:exclusion">
<path d="M54.5455 42V30.3636H61.2955V31.3182H55.608V35.6989H60.9375V36.6534H55.608V41.0455H61.4091V42H54.5455Z" fill="#838383"/>
</g>
</svg>
