<svg xmlns="http://www.w3.org/2000/svg" viewBox="0 0 96 96" fill="#FFF" stroke-miterlimit="10" stroke-width="2">
	<path stroke="#979593" d="M67.1716,7H27c-1.1046,0-2,0.8954-2,2v78 c0,1.1046,0.8954,2,2,2h58c1.1046,0,2-0.8954,2-2V26.8284c0-0.5304-0.2107-1.0391-0.5858-1.4142L68.5858,7.5858 C68.2107,7.2107,67.702,7,67.1716,7z"/>
	<path fill="none" stroke="#979593" d="M67,7v18c0,1.1046,0.8954,2,2,2h18"/>
	<path fill="none" stroke="#C8C6C4" d="M79 57H42v20c0 1.1046.8954 2 2 2h33c1.1046 0 2-.8954 2-2V57zM66 41H34v16h30c1.1046 0 2-.8954 2-2V41z"/>
	<path fill="#F7A8AB" d="M80 58H48v-6h30c1.1046 0 2 .8954 2 2V58zM67 44H35v-6h30c1.1046 0 2 .8954 2 2V44z"/>
	<path fill="#C8C6C4" d="M72 74H60c-.5523 0-1-.4477-1-1l0 0c0-.5523.4477-1 1-1h12c.5523 0 1 .4477 1 1l0 0C73 73.5523 72.5523 74 72 74zM72 69H60c-.5523 0-1-.4477-1-1l0 0c0-.5523.4477-1 1-1h12c.5523 0 1 .4477 1 1l0 0C73 68.5523 72.5523 69 72 69zM72 64H60c-.5523 0-1-.4477-1-1l0 0c0-.5523.4477-1 1-1h12c.5523 0 1 .4477 1 1l0 0C73 63.5523 72.5523 64 72 64zM60 49h-7c-.5523 0-1-.4477-1-1l0 0c0-.5523.4477-1 1-1h7c.5523 0 1 .4477 1 1l0 0C61 48.5523 60.5523 49 60 49z"/>
	<path fill="#F7A8AB" d="M54 74h-4c-.5523 0-1-.4477-1-1l0 0c0-.5523.4477-1 1-1h4c.5523 0 1 .4477 1 1l0 0C55 73.5523 54.5523 74 54 74zM54 69h-4c-.5523 0-1-.4477-1-1l0 0c0-.5523.4477-1 1-1h4c.5523 0 1 .4477 1 1l0 0C55 68.5523 54.5523 69 54 69zM54 64h-4c-.5523 0-1-.4477-1-1l0 0c0-.5523.4477-1 1-1h4c.5523 0 1 .4477 1 1l0 0C55 63.5523 54.5523 64 54 64z"/>
	<path fill="#A4373A" d="M12,74h32c2.2091,0,4-1.7909,4-4V38c0-2.2091-1.7909-4-4-4H12c-2.2091,0-4,1.7909-4,4v32 C8,72.2091,9.7909,74,12,74z"/>
	<path d="M25.0264,41h6.0303l9.6855,26h-5.6963l-2.1338-6.2008h-9.9639L20.8516,67h-5.6592L25.0264,41z M31.6318,57l-3.0986-9.6179c-0.3096-0.8941-0.501-1.6013-0.5752-2.1213h-0.1113c-0.0498,0.4714-0.2354,1.1967-0.5566,2.1757 L24.1543,57H31.6318z"/>
</svg>