<svg id="svg" version="1.1" xmlns="http://www.w3.org/2000/svg" xmlns:xlink="http://www.w3.org/1999/xlink" width="400" height="400" viewBox="0, 0, 400,400"><g id="svgg"><path id="path0" d="M66.400 200.000 L 66.400 375.200 200.000 375.200 L 333.600 375.200 333.600 241.547 L 333.600 107.893 292.058 66.347 L 250.516 24.800 158.458 24.800 L 66.400 24.800 66.400 200.000 M281.338 77.056 C 303.042 98.757,320.800 116.577,320.800 116.656 C 320.800 116.735,302.980 116.800,281.200 116.800 L 241.600 116.800 241.600 77.200 C 241.600 55.420,241.662 37.600,241.738 37.600 C 241.813 37.600,259.633 55.355,281.338 77.056 M213.800 160.227 C 216.220 161.223,221.620 163.392,225.800 165.047 C 229.980 166.701,233.940 168.292,234.600 168.580 C 235.260 168.869,236.472 169.320,237.294 169.582 C 238.116 169.844,238.892 170.225,239.018 170.429 C 239.144 170.633,239.509 170.800,239.828 170.800 C 240.147 170.800,241.172 171.147,242.104 171.572 C 243.037 171.996,245.150 172.872,246.800 173.517 L 249.800 174.691 249.906 187.345 C 249.966 194.534,249.858 200.000,249.656 200.000 C 249.237 200.000,246.148 198.955,245.000 198.425 C 244.560 198.222,243.480 197.840,242.600 197.576 C 241.720 197.312,240.820 196.964,240.600 196.803 C 240.380 196.642,239.660 196.382,239.000 196.224 C 238.340 196.067,237.260 195.685,236.600 195.376 C 235.940 195.067,233.420 194.106,231.000 193.241 C 228.580 192.376,226.285 191.544,225.900 191.391 C 225.237 191.129,225.200 192.779,225.200 222.675 L 225.200 254.236 224.215 258.018 C 219.568 275.855,202.262 286.632,184.511 282.743 C 182.360 282.272,179.973 281.552,179.206 281.143 C 178.439 280.734,177.629 280.400,177.406 280.400 C 173.452 280.399,163.242 269.403,160.321 262.000 C 149.574 234.762,179.010 206.862,205.300 219.369 L 208.000 220.653 208.000 190.159 C 208.000 173.388,208.109 159.381,208.243 159.033 C 208.586 158.139,208.881 158.202,213.800 160.227 " stroke="none" fill="#93cbfb" fill-rule="evenodd"></path><path id="path1" d="M208.400 189.657 C 208.400 209.543,208.260 220.800,208.011 220.800 C 207.798 220.800,206.625 220.359,205.405 219.819 C 176.766 207.153,147.862 237.430,162.204 265.072 C 175.611 290.912,213.401 288.351,222.973 260.954 C 224.725 255.940,224.794 254.477,224.797 222.124 C 224.799 205.142,224.935 191.169,225.100 191.073 C 225.445 190.873,226.665 191.283,236.800 195.004 C 240.870 196.499,245.131 198.040,246.269 198.430 C 247.407 198.820,248.714 199.340,249.174 199.586 L 250.011 200.034 249.906 187.554 L 249.800 175.073 229.100 166.794 L 208.400 158.515 208.400 189.657 " stroke="none" fill="#1c74d4" fill-rule="evenodd"></path><path id="path2" d="M242.000 77.400 L 242.000 116.400 281.099 116.400 L 320.198 116.400 281.200 77.400 C 259.751 55.950,242.156 38.400,242.101 38.400 C 242.045 38.400,242.000 55.950,242.000 77.400 " stroke="none" fill="#e4f4fc" fill-rule="evenodd"></path><path id="path3" d="M241.600 77.200 L 241.600 116.800 281.200 116.800 C 302.980 116.800,320.800 116.735,320.800 116.656 C 320.800 116.472,241.922 37.600,241.738 37.600 C 241.662 37.600,241.600 55.420,241.600 77.200 M281.200 77.400 L 320.198 116.400 281.099 116.400 L 242.000 116.400 242.000 77.400 C 242.000 55.950,242.045 38.400,242.101 38.400 C 242.156 38.400,259.751 55.950,281.200 77.400 " stroke="none" fill="#bce4fc" fill-rule="evenodd"></path><path id="path4" d="M208.834 158.551 C 209.176 158.917,218.109 162.425,218.275 162.258 C 218.353 162.181,216.657 161.394,214.508 160.510 C 210.336 158.795,208.455 158.146,208.834 158.551 M208.190 190.000 C 208.190 207.050,208.240 214.025,208.300 205.500 C 208.360 196.975,208.360 183.025,208.300 174.500 C 208.240 165.975,208.190 172.950,208.190 190.000 M219.600 162.936 C 220.150 163.246,221.050 163.619,221.600 163.765 L 222.600 164.029 221.600 163.464 C 221.050 163.154,220.150 162.781,219.600 162.635 L 218.600 162.371 219.600 162.936 M223.600 164.536 C 224.150 164.846,225.050 165.219,225.600 165.365 L 226.600 165.629 225.600 165.064 C 225.050 164.754,224.150 164.381,223.600 164.235 L 222.600 163.971 223.600 164.536 M227.600 166.136 C 228.150 166.446,229.050 166.819,229.600 166.965 L 230.600 167.229 229.600 166.664 C 229.050 166.354,228.150 165.981,227.600 165.835 L 226.600 165.571 227.600 166.136 M232.336 168.036 C 233.291 168.490,234.171 168.763,234.291 168.642 C 234.520 168.413,233.320 167.886,231.600 167.458 C 231.050 167.322,231.381 167.582,232.336 168.036 M235.290 169.195 C 236.210 169.773,239.200 170.818,239.200 170.562 C 239.200 170.328,237.070 169.421,235.600 169.029 C 234.777 168.809,234.722 168.838,235.290 169.195 M239.600 170.962 C 239.600 171.052,240.410 171.401,241.400 171.738 C 243.557 172.473,243.787 172.256,241.751 171.405 C 240.304 170.801,239.600 170.656,239.600 170.962 M243.633 172.565 C 243.955 172.883,248.154 174.379,248.304 174.230 C 248.387 174.146,247.446 173.701,246.213 173.239 C 244.027 172.421,243.294 172.230,243.633 172.565 M224.994 191.300 C 224.894 191.575,224.756 206.290,224.687 224.000 C 224.619 241.710,224.431 256.650,224.270 257.200 L 223.977 258.200 224.489 257.200 C 224.938 256.322,225.726 190.799,225.287 190.800 C 225.226 190.800,225.093 191.025,224.994 191.300 M227.000 191.767 C 227.660 192.061,228.650 192.420,229.200 192.565 L 230.200 192.829 229.200 192.270 C 228.650 191.962,227.660 191.603,227.000 191.472 L 225.800 191.233 227.000 191.767 M232.000 193.533 C 232.330 193.736,233.050 194.024,233.600 194.171 C 234.295 194.357,234.417 194.325,234.000 194.067 C 233.670 193.864,232.950 193.576,232.400 193.429 C 231.705 193.243,231.583 193.275,232.000 193.533 M236.000 194.983 C 236.000 195.267,237.619 195.908,239.118 196.217 C 240.148 196.429,240.142 196.412,238.974 195.870 C 237.277 195.082,236.000 194.701,236.000 194.983 M240.620 196.752 C 241.138 197.231,244.006 198.127,244.248 197.885 C 244.356 197.778,243.592 197.400,242.550 197.045 C 240.382 196.306,240.091 196.262,240.620 196.752 M245.013 198.340 C 245.379 198.675,249.083 200.014,249.571 199.988 C 249.697 199.981,249.451 199.773,249.025 199.526 C 247.973 198.916,244.529 197.897,245.013 198.340 M186.878 216.740 C 186.372 216.883,188.612 217.000,191.857 217.000 C 195.102 217.000,197.226 216.886,196.578 216.747 C 195.024 216.414,188.052 216.409,186.878 216.740 M200.800 218.173 C 202.450 218.678,204.655 219.470,205.700 219.932 C 206.745 220.394,207.600 220.678,207.600 220.564 C 207.600 220.229,203.175 218.345,201.000 217.753 C 197.716 216.860,197.563 217.182,200.800 218.173 M181.000 218.202 L 179.800 218.767 181.000 218.524 C 181.660 218.390,182.560 218.139,183.000 217.966 L 183.800 217.651 183.000 217.643 C 182.560 217.639,181.660 217.891,181.000 218.202 M177.653 219.453 C 176.913 219.776,176.401 220.134,176.516 220.249 C 176.631 220.364,177.416 220.093,178.262 219.647 C 180.035 218.711,179.641 218.586,177.653 219.453 M172.795 222.270 C 170.160 224.034,165.825 228.304,164.107 230.827 C 162.592 233.051,160.254 237.588,160.498 237.831 C 160.595 237.928,161.327 236.687,162.126 235.072 C 164.680 229.903,168.778 225.382,174.410 221.521 C 174.954 221.148,175.308 220.833,175.195 220.821 C 175.082 220.809,174.002 221.461,172.795 222.270 M159.427 240.433 C 159.082 241.595,158.816 242.918,158.836 243.373 C 158.856 243.828,159.206 242.945,159.614 241.412 C 160.487 238.133,160.339 237.362,159.427 240.433 M158.093 250.000 C 158.093 250.770,158.175 251.085,158.276 250.700 C 158.376 250.315,158.376 249.685,158.276 249.300 C 158.175 248.915,158.093 249.230,158.093 250.000 M159.025 257.400 C 159.264 259.180,160.004 261.730,160.218 261.515 C 160.294 261.439,160.008 260.122,159.583 258.588 C 159.117 256.909,158.895 256.436,159.025 257.400 M222.868 261.176 C 222.609 261.920,222.482 262.616,222.587 262.720 C 222.854 262.987,223.658 260.773,223.483 260.250 C 223.405 260.014,223.128 260.431,222.868 261.176 M160.400 262.251 C 160.400 262.873,163.047 267.632,164.630 269.857 C 167.576 273.996,174.678 279.694,178.000 280.584 C 178.550 280.731,177.650 280.103,176.000 279.188 C 169.501 275.584,164.601 270.431,161.747 264.196 C 160.833 262.200,160.400 261.574,160.400 262.251 M220.484 266.366 C 217.514 271.697,212.723 276.307,206.701 279.627 C 205.545 280.264,204.784 280.789,205.008 280.793 C 208.599 280.856,224.236 265.202,222.353 263.429 C 222.269 263.349,221.428 264.671,220.484 266.366 M179.428 281.246 C 179.687 281.664,182.714 282.495,183.286 282.305 C 183.520 282.227,182.702 281.882,181.467 281.538 C 180.233 281.194,179.315 281.063,179.428 281.246 M201.800 281.627 C 200.157 282.255,200.050 282.348,201.200 282.149 C 201.970 282.015,203.050 281.664,203.600 281.369 C 205.024 280.605,204.142 280.731,201.800 281.627 M186.623 283.253 C 187.270 283.392,189.510 283.505,191.600 283.505 C 193.690 283.505,195.930 283.392,196.577 283.253 C 197.225 283.114,194.985 283.000,191.600 283.000 C 188.215 283.000,185.975 283.114,186.623 283.253 " stroke="none" fill="#62aaea" fill-rule="evenodd"></path></g></svg>