<svg id="svg" version="1.1" xmlns="http://www.w3.org/2000/svg" xmlns:xlink="http://www.w3.org/1999/xlink" width="400" height="400" viewBox="0, 0, 400,400"><g id="svgg"><path id="path0" d="M258.724 192.535 C 252.957 194.161,249.157 200.912,250.629 206.918 C 254.062 220.928,274.611 218.597,274.590 204.200 C 274.578 195.794,266.979 190.207,258.724 192.535 M173.682 193.700 C 173.243 194.415,171.610 196.800,170.053 199.000 C 168.496 201.200,166.599 203.900,165.837 205.000 C 161.460 211.316,157.603 216.829,146.449 232.705 C 142.625 238.147,138.493 244.040,137.266 245.800 C 136.039 247.560,133.963 250.530,132.654 252.400 C 129.092 257.484,127.131 260.293,124.959 263.419 C 122.878 266.413,121.634 268.176,118.900 272.006 C 117.965 273.316,117.200 274.480,117.200 274.594 C 117.200 274.707,152.570 274.800,195.800 274.800 C 239.030 274.800,274.400 274.677,274.400 274.526 C 274.400 274.375,274.065 273.880,273.656 273.426 C 273.247 272.972,271.482 270.710,269.735 268.400 C 267.988 266.090,264.575 261.590,262.152 258.400 C 251.396 244.243,244.139 234.639,243.400 233.583 C 242.566 232.392,234.100 221.245,233.594 220.672 C 233.435 220.492,231.233 223.102,228.701 226.472 C 219.688 238.468,214.698 245.010,214.007 245.736 C 213.258 246.522,212.883 246.086,206.991 237.600 C 206.151 236.390,203.001 231.890,199.992 227.600 C 193.484 218.323,192.437 216.826,188.000 210.449 C 186.130 207.762,182.763 202.965,180.518 199.790 C 178.273 196.614,176.242 193.652,176.004 193.208 C 175.382 192.044,174.595 192.211,173.682 193.700 " stroke="none" fill="#176aca" fill-rule="evenodd"></path><path id="path1" d="M66.400 200.000 L 66.400 375.200 200.000 375.200 L 333.600 375.200 333.600 241.541 L 333.600 107.882 292.060 66.341 L 250.520 24.800 158.460 24.800 L 66.400 24.800 66.400 200.000 M281.400 77.200 L 320.998 116.800 281.299 116.800 L 241.600 116.800 241.600 77.200 C 241.600 55.420,241.645 37.600,241.701 37.600 C 241.756 37.600,259.621 55.420,281.400 77.200 M180.503 199.116 C 182.536 202.040,185.559 206.360,187.221 208.716 C 188.882 211.072,191.241 214.440,192.463 216.200 C 195.468 220.528,197.603 223.588,200.277 227.400 C 201.512 229.160,203.459 231.950,204.604 233.600 C 205.750 235.250,207.207 237.340,207.843 238.244 C 208.479 239.148,209.973 241.271,211.162 242.962 C 212.351 244.652,213.456 245.893,213.616 245.718 C 213.901 245.407,225.684 229.811,230.543 223.314 C 231.894 221.507,233.123 220.022,233.274 220.014 C 233.594 219.998,236.850 224.193,248.006 239.000 C 252.481 244.940,257.248 251.240,258.599 253.000 C 259.949 254.760,263.902 259.980,267.383 264.600 C 270.863 269.220,274.048 273.373,274.459 273.830 C 274.871 274.286,275.086 274.781,274.937 274.930 C 274.535 275.332,116.800 275.258,116.800 274.856 C 116.800 274.439,117.400 273.550,124.387 263.600 C 127.400 259.310,130.743 254.540,131.816 253.000 C 132.888 251.460,135.288 248.040,137.148 245.400 C 139.008 242.760,141.283 239.520,142.204 238.200 C 143.125 236.880,144.889 234.360,146.123 232.600 C 148.640 229.012,150.670 226.104,153.940 221.400 C 155.164 219.640,157.173 216.760,158.406 215.000 C 162.403 209.292,163.693 207.445,165.534 204.800 C 166.529 203.370,168.179 201.030,169.200 199.600 C 170.221 198.170,171.928 195.756,172.994 194.236 L 174.932 191.471 175.869 192.636 C 176.384 193.276,178.469 196.192,180.503 199.116 M268.216 192.896 C 273.901 195.807,276.606 202.655,274.374 208.486 C 269.299 221.748,250.200 218.362,250.200 204.200 C 250.200 197.837,252.911 194.112,259.200 191.833 C 260.829 191.243,266.232 191.880,268.216 192.896 " stroke="none" fill="#93cbfb" fill-rule="evenodd"></path><path id="path2" d="M242.000 77.400 L 242.000 116.400 281.099 116.400 L 320.198 116.400 281.200 77.400 C 259.751 55.950,242.156 38.400,242.101 38.400 C 242.045 38.400,242.000 55.950,242.000 77.400 " stroke="none" fill="#e4f4fc" fill-rule="evenodd"></path><path id="path3" d="M241.600 77.200 L 241.600 116.800 281.299 116.800 L 320.998 116.800 281.400 77.200 C 259.621 55.420,241.756 37.600,241.701 37.600 C 241.645 37.600,241.600 55.420,241.600 77.200 M281.200 77.400 L 320.198 116.400 281.099 116.400 L 242.000 116.400 242.000 77.400 C 242.000 55.950,242.045 38.400,242.101 38.400 C 242.156 38.400,259.751 55.950,281.200 77.400 " stroke="none" fill="#bce4fc" fill-rule="evenodd"></path><path id="path4" d="M174.483 192.100 C 174.171 192.476,174.300 192.600,175.000 192.600 C 175.700 192.600,175.829 192.476,175.517 192.100 C 175.289 191.825,175.056 191.600,175.000 191.600 C 174.944 191.600,174.711 191.825,174.483 192.100 M258.520 192.019 C 256.356 192.684,256.698 193.111,258.915 192.512 C 268.452 189.936,276.622 198.045,274.316 207.800 L 274.033 209.000 274.598 207.800 C 278.505 199.510,267.928 189.129,258.520 192.019 M172.000 195.600 C 170.068 198.445,170.132 198.830,172.083 196.100 C 173.789 193.713,174.100 193.200,173.839 193.200 C 173.724 193.200,172.896 194.280,172.000 195.600 M176.249 193.626 C 176.948 194.873,184.056 204.800,184.249 204.800 C 184.513 204.800,184.433 204.679,180.508 199.060 C 177.387 194.593,175.291 191.920,176.249 193.626 M253.868 194.955 C 251.725 197.038,250.501 199.281,250.208 201.663 C 249.957 203.703,250.110 203.431,250.987 200.284 C 251.513 198.395,252.070 197.530,254.016 195.584 C 255.327 194.273,256.237 193.200,256.037 193.200 C 255.837 193.200,254.861 193.990,253.868 194.955 M168.703 200.300 C 166.307 203.636,165.541 204.800,165.741 204.800 C 165.917 204.800,169.415 200.116,170.146 198.900 C 170.897 197.652,169.934 198.586,168.703 200.300 M163.917 207.100 C 162.242 209.442,161.900 210.000,162.139 210.000 C 162.308 210.000,164.612 206.909,165.344 205.700 C 166.106 204.442,165.138 205.392,163.917 207.100 M184.625 205.640 C 186.628 208.881,193.786 218.573,192.551 216.374 C 191.852 215.127,184.744 205.200,184.551 205.200 C 184.442 205.200,184.475 205.398,184.625 205.640 M250.206 206.742 C 251.154 214.354,261.057 219.175,268.200 215.503 C 270.164 214.493,273.346 211.662,271.888 212.221 C 271.497 212.371,271.016 212.797,270.818 213.167 C 270.619 213.537,269.409 214.371,268.129 215.020 C 261.296 218.482,252.947 214.878,250.742 207.516 C 250.081 205.308,250.016 205.213,250.206 206.742 M272.990 210.500 L 272.360 211.800 273.180 210.856 C 273.631 210.336,274.000 209.751,274.000 209.556 C 274.000 208.856,273.610 209.221,272.990 210.500 M159.746 213.100 C 158.705 214.585,157.020 216.970,156.004 218.400 C 153.812 221.481,153.488 222.000,153.751 222.000 C 153.920 222.000,160.801 212.439,161.720 210.926 C 162.688 209.333,161.373 210.782,159.746 213.100 M193.056 217.700 C 193.788 218.909,196.092 222.000,196.261 222.000 C 196.500 222.000,196.158 221.442,194.483 219.100 C 193.262 217.392,192.294 216.442,193.056 217.700 M230.543 223.314 C 225.684 229.811,213.901 245.407,213.616 245.718 C 213.456 245.893,212.390 244.684,211.249 243.033 C 210.107 241.382,208.957 239.897,208.693 239.734 C 208.262 239.468,209.484 241.270,212.347 245.123 C 213.616 246.830,212.147 248.505,228.701 226.472 C 231.233 223.102,233.435 220.492,233.594 220.672 C 234.100 221.245,242.566 232.392,243.400 233.583 C 244.139 234.639,251.396 244.243,262.152 258.400 C 264.575 261.590,267.988 266.090,269.735 268.400 C 271.482 270.710,273.247 272.972,273.656 273.426 C 274.065 273.880,274.400 274.376,274.400 274.528 C 274.400 274.680,238.940 274.758,195.600 274.702 C 152.260 274.646,116.800 274.735,116.800 274.900 C 116.800 275.273,274.564 275.303,274.937 274.930 C 275.086 274.781,274.871 274.286,274.459 273.830 C 274.048 273.373,270.863 269.220,267.383 264.600 C 263.902 259.980,259.949 254.760,258.599 253.000 C 257.248 251.240,252.481 244.940,248.006 239.000 C 236.850 224.193,233.594 219.998,233.274 220.014 C 233.123 220.022,231.894 221.507,230.543 223.314 M151.917 224.300 C 150.242 226.642,149.900 227.200,150.139 227.200 C 150.308 227.200,152.612 224.109,153.344 222.900 C 154.106 221.642,153.138 222.592,151.917 224.300 M196.834 222.981 C 197.488 224.152,204.507 234.000,204.688 234.000 C 204.803 234.000,204.651 233.647,204.349 233.216 C 204.047 232.784,202.585 230.669,201.101 228.516 C 198.784 225.154,196.111 221.688,196.834 222.981 M147.725 230.300 C 146.659 231.785,145.070 234.040,144.193 235.312 C 143.317 236.584,142.353 237.979,142.051 238.412 C 141.749 238.845,141.599 239.200,141.718 239.200 C 141.836 239.200,142.968 237.715,144.232 235.900 C 145.496 234.085,147.327 231.475,148.300 230.100 C 149.274 228.725,149.979 227.600,149.867 227.600 C 149.756 227.600,148.792 228.815,147.725 230.300 M205.600 235.600 C 206.070 236.260,206.544 236.800,206.654 236.800 C 206.764 236.800,206.470 236.260,206.000 235.600 C 205.530 234.940,205.056 234.400,204.946 234.400 C 204.836 234.400,205.130 234.940,205.600 235.600 M207.162 237.929 C 207.405 238.384,207.801 238.877,208.042 239.026 C 208.356 239.220,208.354 239.062,208.038 238.471 C 207.795 238.016,207.399 237.523,207.158 237.374 C 206.844 237.180,206.846 237.338,207.162 237.929 M140.325 240.900 C 138.704 243.074,137.440 245.036,138.071 244.400 C 138.886 243.579,141.713 239.600,141.482 239.600 C 141.379 239.600,140.859 240.185,140.325 240.900 M135.099 248.300 C 130.681 254.621,129.105 256.984,129.701 256.400 C 130.744 255.376,137.791 245.200,137.457 245.200 C 137.352 245.200,136.291 246.595,135.099 248.300 M125.173 262.500 C 121.012 268.453,120.616 269.072,121.901 267.619 C 122.397 267.059,124.017 264.838,125.501 262.684 C 126.985 260.531,128.447 258.416,128.749 257.984 C 129.051 257.553,129.203 257.200,129.088 257.200 C 128.972 257.200,127.211 259.585,125.173 262.500 M119.117 271.100 C 117.442 273.442,117.100 274.000,117.339 274.000 C 117.508 274.000,119.812 270.909,120.544 269.700 C 121.306 268.442,120.338 269.392,119.117 271.100 " stroke="none" fill="#5a9ce4" fill-rule="evenodd"></path></g></svg>