<svg id="svg" version="1.1" xmlns="http://www.w3.org/2000/svg" xmlns:xlink="http://www.w3.org/1999/xlink" width="400" height="400" viewBox="0, 0, 400,400"><g id="svgg"><path id="path0" d="M32.400 187.692 C 32.400 187.862,32.040 188.000,31.600 188.000 C 31.160 188.000,30.800 188.180,30.800 188.400 C 30.800 188.620,30.552 188.800,30.248 188.800 C 29.494 188.800,26.400 191.855,26.400 192.600 C 26.400 192.930,26.256 193.200,26.080 193.200 C 24.851 193.200,24.800 195.945,24.800 262.742 L 24.800 329.627 25.768 331.536 C 26.794 333.562,29.432 336.400,30.288 336.400 C 30.570 336.400,30.800 336.580,30.800 336.800 C 30.800 337.020,31.149 337.200,31.576 337.200 C 32.003 337.200,32.464 337.380,32.600 337.600 C 32.937 338.146,74.491 338.149,75.037 337.603 C 75.297 337.343,116.759 337.171,195.417 337.103 L 315.400 337.000 317.249 336.145 C 320.881 334.466,323.213 331.580,324.355 327.354 C 324.977 325.054,324.987 199.106,324.366 197.160 C 322.699 191.936,319.759 189.146,314.800 188.082 C 312.266 187.538,32.400 187.152,32.400 187.692 M113.523 230.022 C 117.328 230.877,118.666 231.327,121.600 232.740 C 135.374 239.371,138.742 261.328,127.720 272.636 C 121.569 278.947,116.806 280.311,100.700 280.372 L 93.200 280.400 93.200 286.872 C 93.200 295.022,92.581 297.339,89.937 299.089 C 86.863 301.123,82.659 300.198,80.494 297.010 L 79.400 295.400 79.400 265.000 L 79.400 234.600 80.384 233.200 C 81.524 231.578,82.520 230.781,84.200 230.148 C 85.799 229.545,110.922 229.437,113.523 230.022 M181.000 230.826 C 189.298 231.946,195.378 234.780,200.700 240.010 C 202.295 241.577,203.600 242.998,203.600 243.168 C 203.600 243.337,204.050 243.999,204.601 244.638 C 205.151 245.277,205.890 246.430,206.244 247.200 C 208.279 251.636,208.741 252.771,209.175 254.400 C 209.439 255.390,209.851 256.830,210.092 257.600 C 210.659 259.417,210.659 271.383,210.092 273.200 C 209.851 273.970,209.439 275.410,209.175 276.400 C 208.255 279.860,206.680 283.180,204.318 286.643 C 202.252 289.671,198.410 293.554,196.288 294.758 C 195.579 295.160,194.100 296.018,193.000 296.665 C 187.738 299.761,181.672 300.521,163.749 300.331 C 153.174 300.219,151.228 300.105,150.200 299.538 C 148.299 298.489,147.127 296.981,146.768 295.121 C 146.377 293.103,146.286 238.543,146.669 236.225 C 147.004 234.197,149.564 231.562,151.800 230.944 C 153.939 230.352,176.804 230.260,181.000 230.826 M268.323 230.861 C 274.616 232.406,275.673 239.964,270.039 243.130 C 268.524 243.982,268.163 244.000,253.046 244.000 L 237.600 244.000 237.600 251.589 L 237.600 259.179 250.500 259.326 C 264.664 259.489,265.282 259.558,267.307 261.227 C 271.252 264.480,271.132 269.113,267.030 271.889 L 265.400 272.993 251.500 273.135 L 237.600 273.278 237.600 284.459 C 237.600 296.706,237.559 296.954,235.184 298.952 C 232.243 301.427,226.134 299.810,224.606 296.153 C 223.703 293.992,223.693 236.832,224.595 234.673 C 225.314 232.953,227.230 231.444,229.400 230.891 C 231.736 230.295,265.910 230.268,268.323 230.861 M93.200 254.950 L 93.200 267.200 101.854 267.200 C 116.303 267.200,121.139 264.002,120.741 254.711 C 120.353 245.646,116.544 243.149,102.700 242.883 L 93.200 242.700 93.200 254.950 M160.400 265.448 L 160.400 287.696 170.500 287.500 C 184.255 287.234,189.226 285.236,193.170 278.389 C 196.130 273.250,196.947 269.956,196.689 264.200 C 196.514 260.289,196.265 258.616,195.621 257.000 C 194.861 255.097,193.376 252.189,193.100 252.067 C 192.935 251.993,192.800 251.758,192.800 251.543 C 192.800 250.198,185.894 244.800,184.173 244.800 C 183.852 244.800,183.277 244.633,182.895 244.429 C 181.435 243.649,176.149 243.200,168.423 243.200 L 160.400 243.200 160.400 265.448 " stroke="none" fill="#f45444" fill-rule="evenodd"></path><path id="path1" d="M92.500 0.412 C 92.005 0.611,91.597 0.645,91.594 0.487 C 91.591 0.329,91.456 0.406,91.294 0.659 C 91.132 0.911,90.550 1.181,90.000 1.259 C 89.450 1.336,88.651 1.715,88.225 2.100 C 87.798 2.485,87.213 2.800,86.925 2.800 C 86.636 2.800,86.400 2.980,86.400 3.200 C 86.400 3.420,86.141 3.600,85.823 3.600 C 85.054 3.600,78.673 9.821,78.545 10.697 C 78.489 11.076,78.254 11.449,78.022 11.526 C 77.790 11.603,77.600 11.922,77.600 12.233 C 77.600 12.545,77.441 12.800,77.247 12.800 C 76.952 12.800,76.636 13.476,76.497 14.400 C 76.481 14.510,76.092 15.552,75.634 16.715 L 74.800 18.830 74.800 103.013 L 74.800 187.196 195.300 187.298 L 315.800 187.400 317.800 188.347 C 319.881 189.332,323.600 192.851,323.600 193.834 C 323.600 194.145,323.741 194.400,323.913 194.400 C 325.165 194.400,325.220 197.601,325.110 263.400 C 324.985 338.041,325.391 330.251,321.414 334.200 C 319.381 336.218,318.573 336.715,315.972 337.545 C 314.917 337.881,283.209 338.000,194.672 338.000 L 74.800 338.000 74.800 359.585 C 74.800 380.174,74.837 381.263,75.594 383.185 C 76.031 384.293,76.256 385.205,76.094 385.212 C 75.932 385.219,76.108 385.404,76.483 385.623 C 76.860 385.842,77.065 386.285,76.941 386.611 C 76.816 386.935,76.914 387.200,77.157 387.200 C 77.401 387.200,77.600 387.448,77.600 387.751 C 77.600 388.054,77.868 388.524,78.196 388.796 C 78.523 389.068,78.713 389.418,78.617 389.573 C 78.358 389.992,85.101 396.400,85.800 396.400 C 86.130 396.400,86.400 396.580,86.400 396.800 C 86.400 397.020,86.760 397.200,87.200 397.200 C 87.640 397.200,88.000 397.380,88.000 397.600 C 88.000 397.820,88.371 398.000,88.824 398.000 C 89.277 398.000,89.536 398.180,89.400 398.400 C 89.261 398.626,89.585 398.800,90.143 398.800 C 90.688 398.800,91.208 399.025,91.300 399.300 C 91.433 399.699,118.472 399.800,224.713 399.800 C 330.777 399.800,358.062 399.698,358.460 399.300 C 358.735 399.025,359.284 398.800,359.680 398.800 C 360.076 398.800,360.400 398.620,360.400 398.400 C 360.400 398.180,360.634 398.000,360.920 398.000 C 361.656 398.000,363.593 397.059,363.597 396.700 C 363.599 396.535,363.865 396.400,364.188 396.400 C 364.922 396.400,371.334 390.131,371.457 389.293 C 371.506 388.956,371.708 388.572,371.905 388.440 C 372.103 388.308,372.519 387.615,372.830 386.900 C 373.141 386.185,373.542 385.600,373.721 385.600 C 373.901 385.600,373.968 385.465,373.871 385.300 C 373.773 385.135,373.880 384.550,374.106 384.000 C 374.333 383.450,374.623 382.730,374.749 382.400 C 374.876 382.070,375.030 318.440,375.091 241.000 L 375.202 100.200 339.101 100.318 C 301.672 100.441,297.511 100.305,292.810 98.803 C 285.031 96.318,279.360 90.772,276.335 82.691 L 275.402 80.200 275.292 40.100 L 275.181 0.000 184.291 0.025 C 131.099 0.040,93.027 0.201,92.500 0.412 M85.000 230.516 C 82.514 231.268,81.674 231.892,80.701 233.713 L 79.800 235.400 79.800 265.229 L 79.800 295.059 80.864 296.667 C 83.370 300.453,88.743 300.651,91.305 297.053 C 92.132 295.891,92.202 295.301,92.312 288.602 C 92.377 284.641,92.517 280.995,92.623 280.500 L 92.815 279.600 102.861 279.600 C 108.766 279.600,113.586 279.422,114.554 279.168 C 118.394 278.161,119.511 277.770,121.518 276.725 C 140.438 266.884,136.870 236.729,116.126 231.138 C 112.286 230.103,87.971 229.617,85.000 230.516 M150.405 232.110 C 147.003 233.909,147.200 231.860,147.200 265.468 C 147.200 282.040,147.359 295.565,147.559 296.093 C 148.885 299.581,150.791 299.987,165.884 299.994 C 182.369 300.002,188.724 299.059,193.262 295.932 C 193.846 295.529,194.521 295.200,194.762 295.200 C 195.003 295.200,195.200 295.020,195.200 294.800 C 195.200 294.580,195.467 294.400,195.793 294.400 C 197.168 294.400,206.000 284.582,206.000 283.053 C 206.000 282.933,206.525 281.703,207.166 280.318 C 207.807 278.933,208.419 277.350,208.526 276.800 C 208.633 276.250,209.014 274.735,209.373 273.432 C 210.273 270.166,210.276 260.653,209.378 257.368 C 209.022 256.065,208.594 254.460,208.427 253.800 C 208.259 253.140,207.645 251.560,207.061 250.288 C 206.478 249.017,206.000 247.872,206.000 247.744 C 206.000 244.627,195.089 235.306,188.889 233.127 C 182.471 230.871,154.162 230.123,150.405 232.110 M228.200 231.765 C 226.529 232.507,225.353 233.920,224.841 235.800 C 224.206 238.126,224.231 293.143,224.867 295.266 C 226.318 300.110,233.676 301.295,236.218 297.094 C 236.937 295.904,237.010 294.881,237.123 284.409 C 237.213 276.148,237.378 272.935,237.723 272.715 C 237.986 272.549,244.192 272.409,251.516 272.406 C 264.124 272.400,264.917 272.357,266.432 271.584 C 270.605 269.455,270.671 264.479,266.566 261.346 L 265.064 260.200 251.332 260.072 C 237.605 259.944,237.601 259.944,237.387 259.072 C 237.269 258.592,237.224 254.960,237.286 251.000 L 237.400 243.800 253.000 243.600 C 268.515 243.401,268.608 243.395,270.112 242.460 C 274.197 239.920,274.132 234.160,269.993 231.941 C 268.188 230.973,230.341 230.813,228.200 231.765 M114.508 243.552 C 122.098 247.304,123.793 258.207,117.701 264.084 C 114.389 267.279,113.837 267.400,102.600 267.400 L 92.600 267.400 92.488 255.800 C 92.426 249.420,92.478 243.781,92.603 243.269 L 92.831 242.339 102.715 242.474 C 112.153 242.603,112.686 242.652,114.508 243.552 M180.400 243.207 C 183.428 243.859,185.350 244.515,186.462 245.275 C 187.046 245.674,187.688 246.000,187.890 246.000 C 188.753 246.000,191.873 249.194,193.613 251.859 C 200.740 262.776,197.058 280.163,186.477 285.561 C 182.530 287.575,181.916 287.665,170.700 287.887 L 160.000 288.100 160.000 265.716 C 160.000 253.406,160.120 243.213,160.267 243.067 C 160.684 242.650,178.386 242.773,180.400 243.207 " stroke="none" fill="#e4e4e5" fill-rule="evenodd"></path><path id="path2" d="M275.292 40.100 L 275.402 80.200 276.335 82.691 C 280.135 92.841,287.667 98.644,298.790 99.990 C 302.424 100.430,373.448 100.587,374.567 100.157 C 375.720 99.715,375.233 98.913,371.769 95.540 C 367.642 91.523,359.623 83.498,355.900 79.660 C 354.415 78.129,353.200 76.935,353.200 77.006 C 353.200 77.122,343.156 67.078,340.200 64.005 C 339.540 63.320,335.850 59.637,332.000 55.822 C 328.150 52.007,323.740 47.608,322.200 46.047 C 320.660 44.485,316.970 40.789,314.000 37.832 C 311.030 34.875,307.385 31.200,305.900 29.666 C 304.415 28.132,303.200 26.935,303.200 27.006 C 303.200 27.132,292.641 16.564,290.135 13.930 C 286.874 10.502,275.878 -0.000,275.550 -0.000 C 275.327 -0.000,275.225 15.820,275.292 40.100 M323.422 331.022 C 323.045 331.598,322.816 332.149,322.914 332.247 C 323.012 332.345,323.400 331.954,323.778 331.378 C 324.155 330.802,324.384 330.251,324.286 330.153 C 324.188 330.055,323.800 330.446,323.422 331.022 M321.480 333.815 C 320.741 334.829,318.486 336.172,316.000 337.078 C 314.879 337.486,290.651 337.609,194.600 337.693 L 74.600 337.799 194.400 337.914 C 315.958 338.032,315.422 338.037,318.368 336.654 C 319.545 336.102,323.161 332.833,322.600 332.828 C 322.380 332.827,321.876 333.271,321.480 333.815 " stroke="none" fill="#b4b4bc" fill-rule="evenodd"></path><path id="path3" d="M135.100 187.500 C 168.155 187.556,222.245 187.556,255.300 187.500 C 288.355 187.444,261.310 187.397,195.200 187.397 C 129.090 187.397,102.045 187.444,135.100 187.500 M324.644 197.000 C 324.973 198.471,325.202 198.790,325.194 197.767 C 325.191 197.345,325.005 196.730,324.782 196.400 C 324.485 195.962,324.448 196.124,324.644 197.000 M109.700 230.276 C 110.085 230.376,110.715 230.376,111.100 230.276 C 111.485 230.175,111.170 230.093,110.400 230.093 C 109.630 230.093,109.315 230.175,109.700 230.276 M159.525 231.099 C 163.114 231.166,168.874 231.166,172.325 231.099 C 175.776 231.033,172.840 230.978,165.800 230.978 C 158.760 230.979,155.936 231.033,159.525 231.099 M239.700 231.100 C 244.705 231.163,252.895 231.163,257.900 231.100 C 262.905 231.036,258.810 230.984,248.800 230.984 C 238.790 230.984,234.695 231.036,239.700 231.100 M270.000 231.711 C 270.000 231.787,270.585 232.278,271.300 232.801 C 272.104 233.390,272.384 233.487,272.033 233.055 C 271.500 232.399,270.000 231.407,270.000 231.711 M146.990 265.600 C 146.990 281.990,147.039 288.695,147.100 280.500 C 147.160 272.305,147.160 258.895,147.100 250.700 C 147.039 242.505,146.990 249.210,146.990 265.600 M197.600 237.725 C 197.600 237.794,198.185 238.379,198.900 239.025 L 200.200 240.200 199.025 238.900 C 197.930 237.688,197.600 237.416,197.600 237.725 M165.123 243.099 C 167.831 243.168,172.151 243.168,174.723 243.099 C 177.295 243.029,175.080 242.972,169.800 242.973 C 164.520 242.973,162.415 243.030,165.123 243.099 M92.591 255.300 L 92.600 267.400 101.900 267.411 L 111.200 267.423 102.006 267.304 L 92.812 267.185 92.697 255.193 L 92.582 243.200 92.591 255.300 M237.378 244.113 C 237.270 244.395,237.231 247.950,237.292 252.013 L 237.402 259.400 237.601 251.500 C 237.796 243.752,237.776 243.077,237.378 244.113 M190.600 248.400 C 191.459 249.280,192.252 250.000,192.362 250.000 C 192.472 250.000,191.859 249.280,191.000 248.400 C 190.141 247.520,189.348 246.800,189.238 246.800 C 189.128 246.800,189.741 247.520,190.600 248.400 M194.678 254.195 C 195.044 254.962,195.414 255.519,195.501 255.432 C 195.684 255.249,194.470 252.800,194.196 252.800 C 194.095 252.800,194.312 253.428,194.678 254.195 M133.724 255.400 C 133.726 256.720,133.801 257.212,133.890 256.493 C 133.979 255.774,133.977 254.694,133.886 254.093 C 133.795 253.492,133.722 254.080,133.724 255.400 M121.293 255.200 C 121.293 255.970,121.375 256.285,121.476 255.900 C 121.576 255.515,121.576 254.885,121.476 254.500 C 121.375 254.115,121.293 254.430,121.293 255.200 M239.800 259.871 C 245.068 260.127,264.799 260.183,263.929 259.940 C 263.418 259.797,257.240 259.696,250.200 259.717 C 243.160 259.737,238.480 259.807,239.800 259.871 M210.124 263.000 C 210.126 264.320,210.201 264.812,210.290 264.093 C 210.379 263.374,210.377 262.294,210.286 261.693 C 210.195 261.092,210.122 261.680,210.124 263.000 M210.120 267.600 C 210.120 268.810,210.195 269.305,210.287 268.700 C 210.378 268.095,210.378 267.105,210.287 266.500 C 210.195 265.895,210.120 266.390,210.120 267.600 M196.893 268.800 C 196.893 269.570,196.975 269.885,197.076 269.500 C 197.176 269.115,197.176 268.485,197.076 268.100 C 196.975 267.715,196.893 268.030,196.893 268.800 M244.500 272.699 C 248.185 272.765,254.215 272.765,257.900 272.699 C 261.585 272.633,258.570 272.579,251.200 272.579 C 243.830 272.579,240.815 272.633,244.500 272.699 M237.375 283.600 C 237.375 289.650,237.431 292.125,237.499 289.100 C 237.567 286.075,237.567 281.125,237.499 278.100 C 237.431 275.075,237.375 277.550,237.375 283.600 M208.649 275.815 C 208.512 276.173,208.415 276.766,208.434 277.133 C 208.453 277.500,208.627 277.269,208.821 276.620 C 209.198 275.358,209.065 274.733,208.649 275.815 M114.200 279.200 C 113.696 279.417,113.622 279.544,114.000 279.544 C 114.330 279.544,114.960 279.389,115.400 279.200 C 115.904 278.983,115.978 278.856,115.600 278.856 C 115.270 278.856,114.640 279.011,114.200 279.200 M96.878 279.898 C 99.231 279.969,103.191 279.969,105.678 279.899 C 108.165 279.829,106.240 279.771,101.400 279.770 C 96.560 279.770,94.525 279.828,96.878 279.898 M92.564 287.000 C 92.563 290.740,92.623 292.324,92.697 290.520 C 92.771 288.715,92.772 285.655,92.698 283.720 C 92.625 281.784,92.564 283.260,92.564 287.000 M190.185 282.500 L 188.200 284.600 190.300 282.615 C 191.455 281.523,192.400 280.578,192.400 280.515 C 192.400 280.217,192.029 280.549,190.185 282.500 M164.523 287.899 C 167.120 287.969,171.260 287.968,173.723 287.898 C 176.185 287.828,174.060 287.771,169.000 287.772 C 163.940 287.772,161.925 287.829,164.523 287.899 M200.400 290.600 C 199.428 291.590,198.723 292.400,198.833 292.400 C 198.943 292.400,199.828 291.590,200.800 290.600 C 201.772 289.610,202.477 288.800,202.367 288.800 C 202.257 288.800,201.372 289.610,200.400 290.600 M229.000 299.600 C 229.440 299.789,230.160 299.938,230.600 299.932 C 231.243 299.923,231.204 299.857,230.400 299.600 C 229.032 299.162,227.981 299.162,229.000 299.600 M180.100 299.876 C 180.485 299.976,181.115 299.976,181.500 299.876 C 181.885 299.775,181.570 299.693,180.800 299.693 C 180.030 299.693,179.715 299.775,180.100 299.876 " stroke="none" fill="#fcb4a8" fill-rule="evenodd"></path><path id="path4" d="M314.600 188.000 C 315.040 188.189,315.760 188.344,316.200 188.344 L 317.000 188.344 316.200 188.000 C 315.760 187.811,315.040 187.656,314.600 187.656 L 313.800 187.656 314.600 188.000 M320.417 190.706 C 322.126 192.226,323.383 194.230,324.365 197.000 C 324.790 198.197,324.790 198.197,324.547 196.800 C 324.111 194.290,321.527 190.613,319.434 189.524 C 318.976 189.285,319.418 189.817,320.417 190.706 M324.995 262.200 C 324.995 297.400,325.042 311.741,325.100 294.068 C 325.158 276.396,325.158 247.596,325.100 230.068 C 325.042 212.541,324.995 227.000,324.995 262.200 M84.939 229.906 C 84.686 230.068,91.133 230.200,99.266 230.200 C 107.399 230.200,113.637 230.083,113.127 229.940 C 111.834 229.577,85.504 229.546,84.939 229.906 M82.056 231.213 C 80.816 232.246,81.375 232.235,82.691 231.200 C 83.250 230.760,83.549 230.406,83.354 230.413 C 83.159 230.421,82.575 230.781,82.056 231.213 M152.719 230.728 C 152.344 230.878,158.718 231.000,166.883 231.000 C 175.047 231.000,181.024 230.875,180.164 230.723 C 178.145 230.366,153.616 230.370,152.719 230.728 M230.077 230.740 C 229.570 230.883,238.086 231.000,249.002 231.000 C 259.917 231.000,268.433 230.883,267.924 230.740 C 267.416 230.597,258.900 230.480,249.000 230.480 C 239.100 230.480,230.585 230.597,230.077 230.740 M183.633 231.344 C 183.725 231.423,184.340 231.608,185.000 231.756 C 185.876 231.952,186.038 231.915,185.600 231.618 C 185.060 231.253,183.232 230.998,183.633 231.344 M225.601 232.998 C 225.086 233.548,224.739 234.064,224.832 234.146 C 224.924 234.228,225.419 233.778,225.930 233.147 C 227.076 231.735,226.874 231.644,225.601 232.998 M122.799 233.656 C 123.568 234.125,124.998 235.159,125.976 235.954 C 126.955 236.749,127.610 237.160,127.433 236.867 C 126.990 236.132,122.418 232.800,121.856 232.801 C 121.605 232.802,122.030 233.187,122.799 233.656 M192.400 234.367 C 193.363 235.152,194.000 235.408,194.000 235.010 C 194.000 234.906,193.415 234.535,192.700 234.186 L 191.400 233.552 192.400 234.367 M224.243 235.433 C 223.893 236.344,223.955 294.910,224.306 295.462 C 224.468 295.716,224.600 282.171,224.600 265.362 C 224.600 248.553,224.574 234.800,224.543 234.800 C 224.511 234.800,224.376 235.085,224.243 235.433 M194.400 235.336 C 194.400 235.435,195.255 236.065,196.300 236.736 C 197.345 237.407,198.820 238.595,199.578 239.378 C 200.337 240.160,201.116 240.800,201.309 240.800 C 201.862 240.800,197.663 237.104,195.945 236.077 C 195.095 235.570,194.400 235.236,194.400 235.336 M79.390 265.000 C 79.390 280.840,79.439 287.262,79.500 279.271 C 79.560 271.279,79.560 258.319,79.500 250.471 C 79.439 242.622,79.390 249.160,79.390 265.000 M146.590 265.400 C 146.590 281.240,146.639 287.662,146.700 279.671 C 146.760 271.679,146.760 258.719,146.700 250.871 C 146.639 243.022,146.590 249.560,146.590 265.400 M128.000 237.740 C 128.000 237.879,128.630 238.818,129.400 239.827 C 130.170 240.836,130.798 241.512,130.796 241.331 C 130.794 241.149,130.164 240.210,129.396 239.244 C 128.628 238.278,128.000 237.601,128.000 237.740 M273.254 238.067 C 273.225 238.434,273.084 239.064,272.941 239.467 C 272.741 240.033,272.795 240.096,273.175 239.746 C 273.446 239.497,273.587 238.867,273.488 238.346 C 273.390 237.826,273.284 237.700,273.254 238.067 M270.271 242.522 C 269.164 243.383,268.837 243.404,253.471 243.609 L 237.800 243.818 253.165 243.909 L 268.530 244.000 270.265 242.983 C 271.904 242.023,272.379 241.572,271.700 241.622 C 271.535 241.634,270.892 242.039,270.271 242.522 M92.981 242.904 C 92.875 243.182,92.838 248.807,92.900 255.404 L 93.012 267.400 93.106 255.050 L 93.200 242.700 102.900 242.864 C 108.235 242.954,111.880 242.897,111.000 242.737 C 108.056 242.202,93.198 242.339,92.981 242.904 M160.187 265.400 C 160.187 277.720,160.238 282.818,160.300 276.728 C 160.362 270.639,160.362 260.559,160.300 254.328 C 160.238 248.098,160.187 253.080,160.187 265.400 M180.500 243.876 C 180.885 243.976,181.515 243.976,181.900 243.876 C 182.285 243.775,181.970 243.693,181.200 243.693 C 180.430 243.693,180.115 243.775,180.500 243.876 M114.800 244.078 C 116.834 245.970,118.856 247.615,118.398 247.005 C 117.633 245.989,116.419 244.909,115.400 244.339 C 114.960 244.093,114.690 243.975,114.800 244.078 M205.074 245.967 C 205.693 246.828,206.258 247.475,206.329 247.405 C 206.538 247.196,204.630 244.410,204.274 244.405 C 204.095 244.402,204.455 245.105,205.074 245.967 M190.069 248.470 C 191.241 249.641,192.278 250.552,192.374 250.493 C 192.624 250.339,189.540 247.213,188.669 246.738 C 188.267 246.518,188.897 247.298,190.069 248.470 M118.990 248.301 C 120.181 250.606,120.394 250.926,120.389 250.400 C 120.385 250.070,120.011 249.350,119.556 248.800 C 119.102 248.250,118.847 248.026,118.990 248.301 M133.785 255.200 C 133.792 260.424,133.827 260.712,134.134 258.100 C 134.326 256.476,134.322 253.924,134.127 252.300 C 133.812 249.685,133.778 249.970,133.785 255.200 M120.600 255.200 C 120.600 257.358,120.732 258.916,120.894 258.662 C 121.056 258.408,121.188 256.850,121.188 255.200 C 121.188 253.550,121.056 251.992,120.894 251.738 C 120.732 251.484,120.600 253.042,120.600 255.200 M209.044 255.000 C 209.373 256.471,209.602 256.790,209.594 255.767 C 209.591 255.345,209.405 254.730,209.182 254.400 C 208.885 253.962,208.848 254.124,209.044 255.000 M209.882 258.821 C 210.008 259.799,210.175 260.675,210.255 260.767 C 210.581 261.142,210.360 258.155,210.021 257.621 C 209.784 257.246,209.735 257.670,209.882 258.821 M240.800 259.479 C 249.023 259.756,263.885 259.774,263.463 259.506 C 263.208 259.344,257.240 259.247,250.200 259.288 C 243.160 259.330,238.930 259.416,240.800 259.479 M265.800 260.629 C 266.460 260.972,267.370 261.556,267.823 261.927 C 268.276 262.297,268.021 262.015,267.257 261.300 C 266.492 260.585,265.582 260.001,265.233 260.002 C 264.885 260.004,265.140 260.286,265.800 260.629 M118.472 262.389 C 117.257 264.031,117.380 264.323,118.650 262.814 C 119.227 262.128,119.619 261.486,119.521 261.388 C 119.423 261.290,118.951 261.740,118.472 262.389 M133.049 262.215 C 132.912 262.573,132.815 263.166,132.834 263.533 C 132.853 263.900,133.027 263.669,133.221 263.020 C 133.598 261.758,133.465 261.133,133.049 262.215 M196.931 265.000 C 196.933 266.540,197.005 267.121,197.092 266.291 C 197.179 265.461,197.177 264.201,197.089 263.491 C 197.000 262.781,196.929 263.460,196.931 265.000 M210.524 265.400 C 210.526 266.720,210.601 267.212,210.690 266.493 C 210.779 265.774,210.777 264.694,210.686 264.093 C 210.595 263.492,210.522 264.080,210.524 265.400 M115.618 265.050 C 113.736 266.386,113.571 266.618,115.029 265.877 C 115.705 265.534,116.492 264.971,116.778 264.626 C 117.460 263.805,117.277 263.872,115.618 265.050 M131.891 265.891 C 131.023 267.805,131.286 268.069,132.182 266.182 C 132.559 265.386,132.798 264.665,132.712 264.579 C 132.626 264.493,132.257 265.084,131.891 265.891 M269.771 266.849 C 269.753 267.993,269.877 268.605,270.064 268.309 C 270.468 267.673,270.485 265.953,270.094 265.339 C 269.932 265.086,269.787 265.765,269.771 266.849 M111.800 266.800 C 111.296 267.017,111.222 267.144,111.600 267.144 C 111.930 267.144,112.560 266.989,113.000 266.800 C 113.504 266.583,113.578 266.456,113.200 266.456 C 112.870 266.456,112.240 266.611,111.800 266.800 M129.874 269.560 C 129.306 270.419,127.887 272.080,126.720 273.251 C 125.436 274.542,125.088 275.037,125.838 274.508 C 127.455 273.366,131.793 268.000,131.099 268.000 C 130.993 268.000,130.442 268.702,129.874 269.560 M196.229 270.629 C 196.081 271.215,196.038 271.772,196.132 271.866 C 196.227 271.960,196.424 271.558,196.571 270.971 C 196.719 270.385,196.762 269.828,196.668 269.734 C 196.573 269.640,196.376 270.042,196.229 270.629 M210.067 270.867 C 210.030 271.674,209.896 272.664,209.770 273.067 C 209.553 273.757,209.566 273.759,209.994 273.093 C 210.243 272.704,210.377 271.714,210.291 270.893 L 210.134 269.400 210.067 270.867 M265.000 272.400 C 264.229 272.731,264.231 272.745,265.076 272.772 C 265.558 272.787,266.064 272.620,266.200 272.400 C 266.492 271.927,266.101 271.927,265.000 272.400 M243.700 273.099 C 247.165 273.166,252.835 273.166,256.300 273.099 C 259.765 273.033,256.930 272.978,250.000 272.978 C 243.070 272.978,240.235 273.033,243.700 273.099 M209.246 274.867 C 209.221 275.234,209.096 275.864,208.970 276.267 C 208.752 276.962,208.763 276.963,209.197 276.287 C 209.448 275.896,209.573 275.266,209.473 274.887 C 209.311 274.268,209.288 274.266,209.246 274.867 M123.256 276.034 C 122.736 276.455,122.466 276.794,122.656 276.787 C 123.144 276.769,124.576 275.643,124.371 275.439 C 124.277 275.345,123.775 275.613,123.256 276.034 M120.649 277.405 C 120.016 277.735,118.666 278.262,117.649 278.575 C 116.562 278.910,116.166 279.156,116.688 279.172 C 117.548 279.199,122.000 277.369,122.000 276.988 C 122.000 276.717,121.923 276.741,120.649 277.405 M193.414 277.835 C 193.041 278.404,192.827 278.961,192.939 279.072 C 193.050 279.183,193.429 278.718,193.781 278.037 C 194.559 276.533,194.344 276.415,193.414 277.835 M111.107 279.890 C 111.826 279.979,112.906 279.977,113.507 279.886 C 114.108 279.795,113.520 279.722,112.200 279.724 C 110.880 279.726,110.388 279.801,111.107 279.890 M190.444 281.678 C 189.479 282.734,187.769 284.135,186.644 284.790 C 185.520 285.446,184.790 285.986,185.022 285.991 C 186.182 286.015,193.004 280.352,192.375 279.887 C 192.279 279.816,191.410 280.622,190.444 281.678 M207.055 281.055 C 206.676 281.849,206.453 282.586,206.559 282.693 C 206.666 282.799,207.036 282.209,207.382 281.382 C 208.198 279.429,207.949 279.180,207.055 281.055 M92.795 286.500 C 92.792 290.075,92.686 293.450,92.560 294.000 C 92.380 294.784,92.423 294.871,92.759 294.400 C 93.022 294.032,93.190 291.217,93.194 287.108 L 93.200 280.417 101.300 280.300 L 109.400 280.182 101.100 280.091 L 92.800 280.000 92.795 286.500 M203.936 286.700 C 203.219 287.745,201.822 289.500,200.830 290.600 L 199.027 292.600 200.710 291.022 C 202.289 289.542,205.897 284.800,205.445 284.800 C 205.331 284.800,204.652 285.655,203.936 286.700 M179.400 287.200 L 177.400 287.474 179.200 287.531 C 180.190 287.562,181.270 287.413,181.600 287.200 C 181.930 286.987,182.020 286.838,181.800 286.869 C 181.580 286.900,180.500 287.049,179.400 287.200 M196.856 294.034 C 196.336 294.455,196.066 294.794,196.256 294.787 C 196.744 294.769,198.176 293.643,197.971 293.439 C 197.877 293.345,197.375 293.613,196.856 294.034 M237.097 295.417 C 236.776 297.020,235.354 298.770,233.834 299.431 C 233.122 299.741,232.890 299.975,233.286 299.984 C 234.868 300.020,237.981 296.144,237.509 294.727 C 237.415 294.444,237.229 294.754,237.097 295.417 M194.100 295.646 C 192.737 296.519,192.295 297.106,193.500 296.443 C 194.418 295.939,195.856 294.827,195.600 294.819 C 195.490 294.816,194.815 295.188,194.100 295.646 M146.825 295.706 C 146.811 296.094,147.385 297.002,148.100 297.724 C 148.815 298.446,149.005 298.579,148.523 298.019 C 148.041 297.458,147.467 296.550,147.248 296.000 C 146.967 295.292,146.843 295.206,146.825 295.706 M224.877 296.800 C 225.129 297.615,228.300 300.000,229.131 300.000 C 229.499 300.000,229.032 299.619,228.094 299.155 C 227.155 298.690,226.006 297.835,225.539 297.255 C 225.073 296.675,224.775 296.470,224.877 296.800 M190.800 297.433 C 190.242 297.743,190.065 297.985,190.400 297.981 C 190.730 297.978,191.349 297.710,191.776 297.387 C 192.739 296.659,192.145 296.687,190.800 297.433 M89.620 298.831 C 88.640 299.474,88.014 300.000,88.227 300.000 C 88.664 300.000,91.600 298.072,91.600 297.786 C 91.600 297.529,91.614 297.522,89.620 298.831 M81.200 298.183 C 81.200 298.488,84.011 300.062,84.325 299.933 C 84.502 299.860,83.872 299.402,82.924 298.916 C 81.976 298.429,81.200 298.100,81.200 298.183 M186.800 298.818 C 186.362 299.115,186.524 299.152,187.400 298.956 C 188.871 298.627,189.190 298.398,188.167 298.406 C 187.745 298.409,187.130 298.595,186.800 298.818 M182.800 299.620 C 182.126 299.849,182.451 299.884,183.800 299.728 C 184.900 299.601,185.875 299.431,185.967 299.349 C 186.282 299.068,183.799 299.280,182.800 299.620 M159.500 300.299 C 163.075 300.366,168.925 300.366,172.500 300.299 C 176.075 300.233,173.150 300.179,166.000 300.179 C 158.850 300.179,155.925 300.233,159.500 300.299 M324.155 327.900 C 323.555 331.100,321.089 334.186,317.837 335.806 C 316.740 336.353,316.113 336.800,316.443 336.800 C 317.269 336.800,320.814 334.508,321.847 333.305 C 323.517 331.363,325.540 326.400,324.663 326.400 C 324.538 326.400,324.310 327.075,324.155 327.900 M194.600 337.200 L 75.000 337.402 194.800 337.495 C 271.627 337.554,314.815 337.449,315.200 337.200 C 315.689 336.884,315.652 336.829,315.000 336.905 C 314.560 336.956,260.380 337.089,194.600 337.200 " stroke="none" fill="#f7a497" fill-rule="evenodd"></path></g></svg>