<svg id="svg" version="1.1" xmlns="http://www.w3.org/2000/svg" xmlns:xlink="http://www.w3.org/1999/xlink" width="400" height="400" viewBox="0, 0, 400,400"><g id="svgg"><path id="path0" d="M166.800 233.219 C 166.800 260.489,166.900 282.800,167.023 282.800 C 167.247 282.800,178.803 275.925,193.000 267.345 C 197.180 264.819,201.680 262.120,203.000 261.347 C 204.320 260.574,206.797 259.100,208.505 258.071 C 210.213 257.042,214.443 254.513,217.905 252.451 C 221.367 250.389,224.650 248.409,225.200 248.051 C 225.750 247.693,227.420 246.680,228.910 245.800 C 245.243 236.155,249.571 233.444,249.200 233.090 C 249.018 232.916,179.872 191.395,170.700 185.953 L 166.800 183.638 166.800 233.219 " stroke="none" fill="#1c74d4" fill-rule="evenodd"></path><path id="path1" d="M241.698 77.300 L 241.800 116.600 281.100 116.702 C 302.715 116.758,320.400 116.668,320.400 116.501 C 320.400 116.106,242.292 38.000,241.897 38.000 C 241.732 38.000,241.642 55.685,241.698 77.300 " stroke="none" fill="#e4f4fc" fill-rule="evenodd"></path><path id="path2" d="M66.600 199.998 L 66.600 375.200 200.100 375.200 L 333.600 375.200 333.600 241.800 C 333.600 148.177,333.474 108.400,333.176 108.400 C 332.943 108.400,332.864 108.220,333.000 108.000 C 333.136 107.780,333.057 107.577,332.824 107.550 C 332.591 107.522,332.190 107.478,331.933 107.450 C 331.677 107.422,331.383 107.150,331.281 106.844 C 331.170 106.510,331.274 106.399,331.544 106.565 C 331.830 106.742,331.904 106.614,331.749 106.211 C 331.549 105.690,331.396 105.669,330.877 106.090 C 330.497 106.397,330.356 106.418,330.521 106.142 C 330.672 105.890,330.482 105.346,330.098 104.933 C 329.714 104.521,329.535 104.358,329.700 104.572 C 330.267 105.305,330.000 105.657,329.361 105.018 C 329.010 104.667,328.828 104.105,328.957 103.769 C 329.090 103.421,329.021 103.264,328.795 103.403 C 328.578 103.537,328.400 103.462,328.400 103.236 C 328.400 103.010,328.123 102.932,327.784 103.062 C 327.445 103.192,327.213 103.141,327.269 102.949 C 327.477 102.232,326.334 100.740,325.749 100.964 C 325.417 101.092,325.265 101.018,325.403 100.795 C 325.537 100.578,325.367 100.400,325.024 100.400 C 324.681 100.400,324.400 100.209,324.400 99.976 C 324.400 99.743,324.625 99.684,324.900 99.845 C 325.175 100.006,324.770 99.479,324.000 98.673 C 322.565 97.172,322.139 96.854,322.632 97.652 C 322.802 97.926,322.693 98.031,322.356 97.919 C 322.050 97.817,321.778 97.523,321.750 97.267 C 321.723 97.010,321.678 96.609,321.650 96.376 C 321.623 96.143,321.420 96.064,321.200 96.200 C 320.980 96.336,320.800 96.167,320.800 95.824 C 320.800 95.481,320.609 95.200,320.376 95.200 C 320.143 95.200,320.081 95.408,320.238 95.662 C 320.415 95.947,320.348 96.015,320.064 95.840 C 319.811 95.683,319.413 95.160,319.180 94.678 C 318.771 93.831,318.778 93.827,319.378 94.576 C 319.720 95.004,319.997 95.184,319.994 94.976 C 319.982 94.219,319.307 93.558,318.484 93.496 C 317.887 93.451,317.755 93.296,318.031 92.963 C 318.297 92.642,318.217 92.415,317.777 92.247 C 316.820 91.879,316.518 91.959,317.200 92.400 C 317.561 92.633,317.610 92.790,317.324 92.794 C 316.758 92.801,316.225 92.038,316.211 91.200 C 316.205 90.870,315.840 90.596,315.400 90.591 C 314.881 90.584,314.639 90.349,314.711 89.921 C 314.771 89.557,314.490 89.022,314.084 88.730 C 313.679 88.439,313.239 87.910,313.108 87.556 C 312.976 87.201,312.492 86.813,312.033 86.693 C 311.574 86.573,311.300 86.638,311.423 86.837 C 311.546 87.037,311.907 87.200,312.224 87.200 C 312.541 87.200,312.800 87.386,312.800 87.614 C 312.800 88.263,311.291 87.318,310.769 86.343 C 310.408 85.668,310.426 85.558,310.860 85.781 C 311.157 85.934,311.058 85.782,310.641 85.442 C 310.224 85.103,309.731 84.919,309.546 85.034 C 309.361 85.148,309.320 84.951,309.457 84.597 C 309.622 84.166,309.444 83.884,308.919 83.747 C 308.487 83.634,307.931 83.060,307.682 82.471 C 307.325 81.625,307.277 81.595,307.451 82.329 L 307.672 83.257 306.642 82.362 C 305.929 81.742,305.733 81.322,306.003 80.996 C 306.392 80.527,304.645 79.351,303.851 79.547 C 303.659 79.594,303.608 79.357,303.737 79.020 C 303.898 78.601,303.661 78.330,302.986 78.161 C 302.444 78.025,302.000 77.742,302.000 77.533 C 302.000 77.324,302.225 77.282,302.500 77.441 C 302.775 77.599,302.466 77.180,301.813 76.510 C 301.160 75.840,300.387 75.383,300.096 75.495 C 299.805 75.607,299.603 75.541,299.647 75.349 C 299.802 74.672,299.121 73.640,298.066 72.954 C 297.026 72.277,297.014 72.279,297.600 73.030 C 298.156 73.743,298.148 73.759,297.495 73.247 C 297.107 72.942,296.837 72.414,296.895 72.073 C 296.957 71.705,296.595 71.337,296.000 71.166 C 295.177 70.930,295.141 70.870,295.800 70.827 C 296.695 70.768,295.562 69.593,294.624 69.606 C 294.391 69.609,294.470 69.803,294.800 70.037 C 295.333 70.414,295.333 70.443,294.800 70.297 C 294.470 70.207,294.205 69.788,294.210 69.367 C 294.220 68.605,293.345 67.637,292.624 67.613 C 292.416 67.606,292.596 67.880,293.024 68.222 C 293.772 68.821,293.768 68.828,292.915 68.416 C 292.357 68.146,292.116 67.762,292.264 67.378 C 292.393 67.042,292.341 66.796,292.149 66.831 C 291.328 66.981,291.045 66.759,291.600 66.400 C 292.113 66.069,292.098 66.011,291.500 66.006 C 291.115 66.003,290.800 65.759,290.800 65.464 C 290.800 65.170,290.305 64.717,289.700 64.458 C 288.680 64.021,288.656 64.031,289.376 64.593 C 289.804 64.927,289.949 65.200,289.700 65.200 C 289.154 65.200,288.625 64.423,288.611 63.600 C 288.605 63.270,288.240 62.996,287.800 62.991 C 287.276 62.984,287.039 62.750,287.113 62.311 C 287.175 61.943,286.872 61.453,286.440 61.221 C 286.008 60.990,285.554 60.486,285.432 60.100 C 285.309 59.715,284.666 59.159,284.002 58.865 C 283.339 58.571,282.897 58.166,283.021 57.965 C 283.146 57.764,283.057 57.577,282.824 57.550 C 282.591 57.522,282.190 57.477,281.933 57.450 C 281.677 57.423,281.383 57.150,281.281 56.844 C 281.170 56.510,281.274 56.399,281.544 56.565 C 281.830 56.742,281.904 56.614,281.749 56.211 C 281.549 55.690,281.396 55.669,280.877 56.090 C 280.497 56.397,280.356 56.418,280.521 56.142 C 280.672 55.890,280.482 55.346,280.098 54.933 C 279.714 54.521,279.535 54.358,279.700 54.572 C 280.267 55.305,280.000 55.657,279.361 55.018 C 279.010 54.667,278.828 54.105,278.957 53.769 C 279.090 53.421,279.021 53.264,278.795 53.403 C 278.578 53.537,278.400 53.462,278.400 53.236 C 278.400 53.010,278.123 52.932,277.784 53.062 C 277.445 53.192,277.213 53.141,277.269 52.949 C 277.477 52.232,276.334 50.740,275.749 50.964 C 275.417 51.092,275.265 51.018,275.403 50.795 C 275.537 50.578,275.367 50.400,275.024 50.400 C 274.681 50.400,274.400 50.209,274.400 49.976 C 274.400 49.743,274.625 49.684,274.900 49.845 C 275.175 50.006,274.770 49.479,274.000 48.673 C 272.565 47.172,272.139 46.854,272.632 47.652 C 272.802 47.926,272.693 48.031,272.356 47.919 C 272.050 47.817,271.778 47.523,271.750 47.267 C 271.723 47.010,271.678 46.609,271.650 46.376 C 271.622 46.143,271.420 46.064,271.200 46.200 C 270.980 46.336,270.800 46.167,270.800 45.824 C 270.800 45.481,270.609 45.200,270.376 45.200 C 270.143 45.200,270.081 45.408,270.238 45.662 C 270.415 45.947,270.348 46.015,270.064 45.840 C 269.811 45.683,269.413 45.160,269.180 44.678 C 268.771 43.831,268.778 43.827,269.378 44.576 C 269.720 45.004,269.997 45.184,269.994 44.976 C 269.982 44.219,269.307 43.558,268.484 43.496 C 267.887 43.451,267.755 43.296,268.031 42.963 C 268.297 42.642,268.217 42.415,267.777 42.247 C 266.820 41.879,266.518 41.959,267.200 42.400 C 267.561 42.633,267.610 42.790,267.324 42.794 C 266.758 42.801,266.225 42.038,266.211 41.200 C 266.205 40.870,265.840 40.596,265.400 40.591 C 264.881 40.584,264.639 40.349,264.711 39.921 C 264.771 39.557,264.490 39.022,264.084 38.730 C 263.679 38.439,263.239 37.910,263.108 37.556 C 262.976 37.201,262.492 36.813,262.033 36.693 C 261.574 36.573,261.300 36.638,261.423 36.837 C 261.546 37.037,261.907 37.200,262.224 37.200 C 262.541 37.200,262.800 37.386,262.800 37.614 C 262.800 38.263,261.291 37.318,260.769 36.343 C 260.408 35.668,260.426 35.558,260.860 35.781 C 261.157 35.934,261.058 35.782,260.641 35.442 C 260.224 35.103,259.731 34.919,259.546 35.034 C 259.361 35.148,259.320 34.951,259.457 34.597 C 259.622 34.166,259.444 33.884,258.919 33.747 C 258.487 33.634,257.931 33.060,257.682 32.471 C 257.325 31.625,257.277 31.595,257.451 32.329 L 257.672 33.257 256.642 32.362 C 255.929 31.742,255.733 31.322,256.003 30.996 C 256.392 30.527,254.645 29.351,253.851 29.547 C 253.659 29.594,253.608 29.357,253.737 29.020 C 253.898 28.601,253.661 28.330,252.986 28.161 C 252.444 28.025,252.000 27.742,252.000 27.533 C 252.000 27.324,252.225 27.276,252.500 27.427 C 252.775 27.578,252.513 27.228,251.917 26.651 C 251.322 26.073,250.636 25.600,250.394 25.600 C 250.151 25.600,250.063 25.422,250.198 25.203 C 250.360 24.942,219.176 24.805,158.522 24.802 L 66.600 24.797 66.600 199.998 M281.299 77.099 C 302.805 98.604,320.400 116.335,320.400 116.501 C 320.400 116.668,302.715 116.758,281.100 116.702 L 241.800 116.600 241.698 77.300 C 241.642 55.685,241.732 38.000,241.897 38.000 C 242.063 38.000,259.794 55.595,281.299 77.099 M285.200 60.443 C 285.200 60.637,284.750 60.403,284.200 59.925 C 283.650 59.447,283.200 58.994,283.200 58.919 C 283.200 58.843,283.650 59.076,284.200 59.437 C 284.750 59.797,285.200 60.250,285.200 60.443 M169.690 184.405 C 170.098 184.842,170.700 185.200,171.028 185.200 C 171.356 185.200,171.724 185.459,171.846 185.776 C 171.967 186.092,172.567 186.461,173.179 186.595 C 173.791 186.730,174.631 187.156,175.046 187.542 C 175.461 187.929,176.385 188.503,177.100 188.820 C 177.815 189.136,178.400 189.531,178.400 189.698 C 178.400 189.864,178.636 190.000,178.925 190.000 C 179.213 190.000,179.798 190.315,180.225 190.700 C 180.651 191.085,181.540 191.670,182.200 191.999 C 182.860 192.329,183.490 192.691,183.600 192.803 C 183.710 192.916,184.520 193.366,185.400 193.804 C 186.280 194.242,187.136 194.811,187.302 195.069 C 187.469 195.327,188.144 195.656,188.802 195.801 C 189.461 195.945,190.000 196.239,190.000 196.453 C 190.000 196.667,190.526 197.025,191.168 197.249 C 191.810 197.473,192.428 197.896,192.541 198.190 C 192.654 198.484,193.310 198.849,194.000 199.000 C 194.690 199.151,195.351 199.528,195.470 199.838 C 195.588 200.147,195.936 200.400,196.243 200.400 C 196.549 200.400,197.155 200.755,197.590 201.190 C 198.024 201.624,198.837 202.094,199.395 202.234 C 199.953 202.375,200.543 202.694,200.705 202.945 C 200.867 203.195,201.720 203.758,202.600 204.196 C 203.480 204.634,204.290 205.084,204.400 205.197 C 204.510 205.309,205.140 205.671,205.800 206.001 C 206.460 206.330,207.349 206.915,207.775 207.300 C 208.202 207.685,208.787 208.000,209.075 208.000 C 209.364 208.000,209.600 208.143,209.600 208.318 C 209.600 208.493,210.410 208.970,211.400 209.378 C 212.390 209.787,213.200 210.262,213.200 210.434 C 213.200 210.607,213.830 210.976,214.600 211.254 C 215.370 211.533,216.000 211.914,216.000 212.101 C 216.000 212.288,216.540 212.630,217.200 212.860 C 217.860 213.090,218.400 213.421,218.400 213.596 C 218.400 213.770,219.120 214.201,220.000 214.553 C 220.880 214.905,221.600 215.355,221.600 215.553 C 221.600 215.751,222.017 216.018,222.526 216.146 C 223.036 216.274,223.873 216.743,224.387 217.189 C 224.902 217.635,225.556 218.000,225.841 218.000 C 226.127 218.000,226.504 218.236,226.680 218.523 C 226.856 218.811,227.585 219.283,228.300 219.572 C 229.015 219.861,229.600 220.228,229.600 220.388 C 229.600 220.548,230.410 221.013,231.400 221.422 C 232.390 221.830,233.200 222.285,233.200 222.433 C 233.200 222.582,233.740 222.927,234.400 223.200 C 235.060 223.473,235.600 223.822,235.600 223.974 C 235.600 224.126,236.230 224.498,237.000 224.800 C 237.770 225.102,238.400 225.468,238.400 225.614 C 238.400 225.759,239.165 226.216,240.100 226.628 C 241.035 227.040,241.944 227.607,242.120 227.889 C 242.296 228.170,242.673 228.400,242.959 228.400 C 243.244 228.400,243.898 228.765,244.413 229.211 C 244.927 229.657,245.764 230.126,246.274 230.254 C 246.783 230.382,247.200 230.649,247.200 230.847 C 247.200 231.045,247.920 231.495,248.800 231.847 C 251.209 232.811,250.882 233.972,247.790 235.423 C 246.916 235.834,245.974 236.390,245.698 236.659 C 245.421 236.928,244.836 237.262,244.398 237.401 C 243.959 237.540,243.600 237.788,243.600 237.952 C 243.600 238.116,242.970 238.498,242.200 238.800 C 241.430 239.102,240.800 239.474,240.800 239.626 C 240.800 239.778,240.260 240.127,239.600 240.400 C 238.940 240.673,238.400 241.018,238.400 241.167 C 238.400 241.315,237.590 241.770,236.600 242.178 C 235.610 242.587,234.800 243.062,234.800 243.234 C 234.800 243.407,234.170 243.776,233.400 244.054 C 232.630 244.333,232.000 244.714,232.000 244.901 C 232.000 245.088,231.460 245.430,230.800 245.660 C 230.140 245.890,229.600 246.221,229.600 246.396 C 229.600 246.570,228.880 247.001,228.000 247.353 C 227.120 247.705,226.400 248.155,226.400 248.353 C 226.400 248.551,225.983 248.818,225.474 248.946 C 224.964 249.074,224.127 249.543,223.613 249.989 C 223.098 250.435,222.444 250.800,222.159 250.800 C 221.873 250.800,221.496 251.030,221.320 251.311 C 221.144 251.593,220.235 252.160,219.300 252.572 C 218.365 252.984,217.600 253.441,217.600 253.586 C 217.600 253.732,216.970 254.098,216.200 254.400 C 215.430 254.702,214.800 255.084,214.800 255.248 C 214.800 255.412,214.441 255.660,214.002 255.799 C 213.564 255.938,212.979 256.272,212.702 256.541 C 212.099 257.129,209.457 258.400,208.840 258.400 C 208.598 258.400,208.400 258.584,208.400 258.809 C 208.400 259.033,207.905 259.435,207.300 259.700 C 206.695 259.966,206.067 260.392,205.905 260.647 C 205.743 260.902,205.153 261.225,204.595 261.366 C 204.037 261.506,203.224 261.976,202.790 262.410 C 202.355 262.845,201.749 263.200,201.443 263.200 C 201.136 263.200,200.788 263.453,200.670 263.762 C 200.551 264.072,199.890 264.449,199.200 264.600 C 198.510 264.751,197.854 265.116,197.741 265.410 C 197.628 265.704,197.010 266.127,196.368 266.351 C 195.726 266.575,195.200 266.933,195.200 267.147 C 195.200 267.361,194.661 267.655,194.002 267.799 C 193.344 267.944,192.669 268.292,192.502 268.574 C 192.336 268.855,191.480 269.416,190.600 269.821 C 189.720 270.227,188.910 270.658,188.800 270.780 C 188.690 270.902,188.060 271.271,187.400 271.601 C 186.740 271.930,185.851 272.515,185.425 272.900 C 184.998 273.285,184.413 273.600,184.125 273.600 C 183.836 273.600,183.600 273.743,183.600 273.918 C 183.600 274.093,182.801 274.566,181.823 274.969 C 180.846 275.372,179.958 275.932,179.850 276.213 C 179.742 276.494,179.102 276.846,178.427 276.994 C 177.752 277.142,177.200 277.439,177.200 277.653 C 177.200 277.867,176.674 278.225,176.032 278.449 C 175.390 278.673,174.772 279.096,174.659 279.390 C 174.546 279.684,173.890 280.049,173.200 280.200 C 172.510 280.351,171.849 280.728,171.730 281.038 C 171.612 281.347,171.264 281.600,170.957 281.600 C 170.651 281.600,170.034 281.966,169.588 282.413 C 169.141 282.859,168.241 283.332,167.588 283.463 L 166.400 283.700 166.400 233.400 L 166.400 183.100 167.675 183.355 C 168.376 183.495,169.283 183.968,169.690 184.405 " stroke="none" fill="#94ccfc" fill-rule="evenodd"></path><path id="path3" d="M166.656 183.477 C 166.184 183.949,166.358 283.200,166.831 283.200 C 167.387 283.200,174.813 278.846,175.600 278.058 C 176.133 277.525,176.089 277.524,175.200 278.057 C 174.650 278.386,172.645 279.588,170.744 280.728 C 168.844 281.868,167.179 282.800,167.044 282.800 C 166.910 282.800,166.800 260.478,166.800 233.195 L 166.800 183.590 168.300 184.532 C 169.125 185.050,170.250 185.687,170.800 185.949 L 171.800 186.423 170.834 185.712 C 168.926 184.305,166.907 183.226,166.656 183.477 M174.699 188.265 C 175.730 189.107,179.600 191.330,179.600 191.080 C 179.600 190.920,175.023 188.058,174.200 187.703 C 173.980 187.608,174.205 187.861,174.699 188.265 M180.699 191.867 C 181.194 192.270,182.544 193.110,183.699 193.733 C 184.855 194.356,185.395 194.536,184.901 194.133 C 184.406 193.730,183.056 192.890,181.901 192.267 C 180.745 191.644,180.205 191.464,180.699 191.867 M186.200 195.094 C 186.529 195.432,204.084 206.060,205.400 206.718 C 205.667 206.851,205.667 206.780,205.400 206.506 C 205.071 206.168,187.516 195.540,186.200 194.882 C 185.933 194.749,185.933 194.820,186.200 195.094 M206.699 207.467 C 207.194 207.870,208.544 208.710,209.699 209.333 C 210.855 209.956,211.395 210.136,210.901 209.733 C 210.406 209.330,209.056 208.490,207.901 207.867 C 206.745 207.244,206.205 207.064,206.699 207.467 M212.000 210.514 C 212.000 210.666,216.353 213.410,217.400 213.919 C 217.620 214.025,217.530 213.843,217.200 213.514 C 216.541 212.857,212.000 210.237,212.000 210.514 M218.000 214.122 C 218.000 214.216,219.575 215.246,221.500 216.411 C 225.627 218.910,225.600 218.895,225.600 218.678 C 225.600 218.584,224.025 217.554,222.100 216.389 C 217.973 213.890,218.000 213.905,218.000 214.122 M226.699 219.467 C 227.194 219.870,228.544 220.710,229.699 221.333 C 230.855 221.956,231.395 222.136,230.901 221.733 C 230.406 221.330,229.056 220.490,227.901 219.867 C 226.745 219.244,226.205 219.064,226.699 219.467 M232.000 222.520 C 232.000 222.680,236.577 225.542,237.400 225.897 C 237.620 225.992,237.395 225.739,236.901 225.335 C 235.870 224.493,232.000 222.270,232.000 222.520 M238.000 226.123 C 238.000 226.227,240.475 227.798,243.500 229.614 C 246.525 231.430,249.071 232.976,249.157 233.049 C 249.243 233.121,249.063 233.484,248.757 233.856 C 248.249 234.471,248.280 234.489,249.100 234.051 C 250.449 233.333,250.321 233.195,245.903 230.600 C 243.656 229.280,240.958 227.690,239.908 227.067 C 238.859 226.444,238.000 226.019,238.000 226.123 M245.487 235.831 C 244.229 236.618,243.200 237.345,243.200 237.448 C 243.200 237.700,246.852 235.608,247.586 234.936 C 248.564 234.041,247.891 234.327,245.487 235.831 M237.220 240.801 C 234.261 242.560,231.651 244.206,231.420 244.458 C 230.879 245.049,230.807 245.089,237.300 241.220 C 242.004 238.418,243.232 237.594,242.700 237.601 C 242.645 237.602,240.179 239.042,237.220 240.801 M229.500 245.429 C 228.005 246.240,228.096 246.578,229.600 245.800 C 230.260 245.459,230.800 245.094,230.800 244.990 C 230.800 244.732,230.757 244.747,229.500 245.429 M225.723 247.700 C 222.355 249.836,222.067 250.113,224.600 248.780 C 226.737 247.655,228.515 246.400,227.972 246.400 C 227.863 246.400,226.851 246.985,225.723 247.700 M216.808 253.025 C 214.062 254.675,211.632 256.226,211.408 256.471 C 210.865 257.065,211.001 256.992,216.400 253.795 C 220.465 251.388,222.555 249.973,221.986 250.013 C 221.884 250.020,219.553 251.376,216.808 253.025 M209.500 257.429 C 208.005 258.240,208.096 258.578,209.600 257.800 C 210.260 257.459,210.800 257.094,210.800 256.990 C 210.800 256.732,210.757 256.747,209.500 257.429 M206.500 259.196 C 205.785 259.632,205.200 260.086,205.200 260.204 C 205.200 260.520,207.505 259.277,207.798 258.803 C 208.145 258.242,207.984 258.291,206.500 259.196 M196.676 265.144 C 189.471 269.472,186.617 271.324,189.200 269.993 C 190.764 269.188,204.155 261.139,204.580 260.749 C 205.496 259.908,204.105 260.682,196.676 265.144 M186.500 271.196 C 185.785 271.632,185.200 272.086,185.200 272.204 C 185.200 272.520,187.505 271.277,187.798 270.803 C 188.145 270.242,187.984 270.291,186.500 271.196 M181.900 274.024 C 180.415 274.915,179.200 275.735,179.200 275.846 C 179.200 276.090,179.188 276.096,182.300 274.205 C 184.453 272.897,185.124 272.393,184.700 272.402 C 184.645 272.403,183.385 273.133,181.900 274.024 M177.500 276.629 C 176.005 277.440,176.096 277.778,177.600 277.000 C 178.260 276.659,178.800 276.294,178.800 276.190 C 178.800 275.932,178.757 275.947,177.500 276.629 " stroke="none" fill="#58a4e8" fill-rule="evenodd"></path><path id="path4" d="M249.822 25.235 C 249.946 25.436,250.292 25.600,250.590 25.600 C 250.889 25.600,251.224 25.825,251.335 26.100 C 251.481 26.461,251.546 26.467,251.568 26.124 C 251.602 25.616,250.922 25.071,250.098 24.946 C 249.822 24.904,249.698 25.034,249.822 25.235 M66.598 200.000 C 66.598 296.250,66.644 335.625,66.700 287.500 C 66.756 239.375,66.756 160.625,66.700 112.500 C 66.644 64.375,66.598 103.750,66.598 200.000 M252.108 27.221 C 252.074 27.672,252.302 28.000,252.648 28.000 C 252.978 28.000,253.137 28.178,253.003 28.395 C 252.862 28.623,253.024 28.689,253.384 28.551 C 253.842 28.375,253.941 28.487,253.755 28.972 C 253.616 29.335,253.659 29.597,253.851 29.553 C 254.643 29.372,255.685 30.100,255.134 30.450 C 254.770 30.680,254.751 30.790,255.076 30.794 C 256.123 30.807,255.833 30.114,254.043 28.321 C 252.508 26.783,252.156 26.583,252.108 27.221 M255.837 31.140 C 255.722 31.327,256.060 31.856,256.588 32.315 C 257.243 32.884,257.612 32.999,257.743 32.675 C 257.850 32.414,257.951 32.515,257.968 32.900 C 257.986 33.285,258.281 33.600,258.624 33.600 C 258.993 33.600,259.131 33.788,258.962 34.062 C 258.772 34.369,258.854 34.414,259.206 34.196 C 259.590 33.959,259.666 34.051,259.482 34.530 C 259.343 34.893,259.357 35.171,259.514 35.148 C 260.220 35.043,260.910 35.223,260.681 35.453 C 260.542 35.592,260.606 36.037,260.823 36.443 C 261.304 37.342,262.800 38.228,262.800 37.614 C 262.800 37.386,262.485 37.186,262.100 37.168 C 261.669 37.149,261.595 37.058,261.908 36.933 C 262.443 36.717,258.139 32.122,257.561 32.292 C 257.389 32.342,257.136 32.027,256.997 31.592 C 256.735 30.766,256.198 30.557,255.837 31.140 M263.200 37.917 C 263.200 38.182,263.380 38.400,263.600 38.400 C 263.820 38.400,263.955 38.625,263.900 38.900 C 263.845 39.175,264.034 39.352,264.319 39.294 C 264.620 39.232,264.788 39.484,264.719 39.894 C 264.635 40.390,264.820 40.562,265.340 40.473 C 265.839 40.388,265.982 40.506,265.778 40.835 C 265.572 41.170,265.643 41.220,266.006 40.996 C 266.386 40.761,266.467 40.849,266.292 41.305 C 266.002 42.060,267.068 43.099,267.582 42.563 C 267.784 42.352,266.939 41.201,265.565 39.817 C 264.264 38.506,263.200 37.651,263.200 37.917 M269.207 44.814 C 269.807 45.935,270.295 46.082,270.245 45.127 C 270.220 44.647,269.897 44.232,269.505 44.174 C 268.945 44.092,268.887 44.216,269.207 44.814 M270.800 45.772 C 270.800 46.143,270.980 46.336,271.200 46.200 C 271.420 46.064,271.623 46.143,271.650 46.376 C 271.678 46.609,271.723 47.025,271.751 47.300 C 271.779 47.575,272.124 47.802,272.518 47.803 C 272.911 47.805,273.403 48.075,273.611 48.403 C 273.818 48.732,273.990 48.820,273.994 48.600 C 273.997 48.380,273.279 47.502,272.400 46.648 C 271.244 45.528,270.800 45.284,270.800 45.772 M274.508 49.629 C 274.474 50.073,274.704 50.400,275.048 50.400 C 275.378 50.400,275.537 50.578,275.403 50.795 C 275.262 51.023,275.424 51.089,275.784 50.951 C 276.254 50.770,276.349 50.895,276.167 51.455 C 275.990 51.999,276.027 52.056,276.307 51.666 C 276.698 51.120,277.436 52.125,277.247 52.949 C 277.203 53.141,277.435 53.195,277.763 53.069 C 278.143 52.924,278.458 53.153,278.632 53.702 C 279.028 54.950,279.866 55.727,280.115 55.078 C 280.221 54.802,279.016 53.289,277.437 51.716 C 275.222 49.511,274.553 49.034,274.508 49.629 M281.397 56.405 C 281.245 56.651,281.243 56.976,281.393 57.127 C 281.652 57.385,281.801 57.429,282.824 57.550 C 283.057 57.578,283.136 57.780,283.000 58.000 C 282.864 58.220,282.954 58.400,283.200 58.400 C 283.446 58.400,283.553 58.553,283.437 58.740 C 283.322 58.927,283.671 59.465,284.214 59.937 C 284.756 60.409,285.200 60.616,285.200 60.397 C 285.200 60.179,285.531 60.315,285.937 60.700 C 286.342 61.085,286.584 61.563,286.475 61.762 C 286.366 61.961,286.496 61.988,286.765 61.822 C 287.094 61.618,287.212 61.761,287.127 62.260 C 287.036 62.791,287.209 62.964,287.740 62.873 C 288.239 62.788,288.382 62.906,288.178 63.235 C 287.972 63.570,288.043 63.620,288.406 63.396 C 288.786 63.161,288.867 63.249,288.692 63.705 C 288.406 64.450,289.364 65.393,290.004 64.997 C 290.422 64.739,285.898 59.863,285.136 59.750 C 284.951 59.723,284.575 59.675,284.300 59.644 C 283.945 59.604,283.930 59.503,284.248 59.294 C 284.540 59.102,284.170 58.470,283.185 57.478 C 282.219 56.505,281.574 56.118,281.397 56.405 M291.380 66.768 C 291.532 67.013,291.853 67.091,292.096 66.941 C 292.378 66.766,292.445 66.905,292.283 67.328 C 292.026 67.998,293.254 69.013,293.737 68.530 C 294.139 68.128,293.613 67.620,293.027 67.845 C 292.680 67.978,292.502 67.794,292.540 67.343 C 292.574 66.938,292.277 66.564,291.853 66.477 C 291.380 66.380,291.206 66.487,291.380 66.768 M294.171 69.484 C 294.287 70.276,295.020 70.615,295.375 70.041 C 295.511 69.821,295.274 69.453,294.847 69.225 C 294.216 68.887,294.091 68.935,294.171 69.484 M296.000 71.175 C 296.550 71.338,296.949 71.699,296.886 71.978 C 296.717 72.727,297.572 73.586,298.234 73.332 C 298.650 73.172,298.742 73.317,298.567 73.855 C 298.390 74.399,298.427 74.456,298.707 74.066 C 299.098 73.520,299.836 74.525,299.647 75.349 C 299.603 75.541,299.840 75.594,300.173 75.466 C 300.517 75.334,300.951 75.529,301.177 75.917 C 301.396 76.292,301.578 76.420,301.580 76.200 C 301.589 75.454,296.536 70.799,295.762 70.840 C 295.186 70.870,295.244 70.952,296.000 71.175 M302.108 77.221 C 302.074 77.672,302.302 78.000,302.648 78.000 C 302.978 78.000,303.137 78.178,303.003 78.395 C 302.862 78.623,303.024 78.689,303.384 78.551 C 303.842 78.375,303.941 78.487,303.755 78.972 C 303.616 79.335,303.659 79.597,303.851 79.553 C 304.643 79.372,305.685 80.100,305.134 80.450 C 304.770 80.680,304.751 80.790,305.076 80.794 C 306.123 80.807,305.833 80.114,304.043 78.321 C 302.508 76.783,302.156 76.583,302.108 77.221 M305.837 81.140 C 305.722 81.327,306.060 81.856,306.588 82.315 C 307.243 82.884,307.612 82.999,307.743 82.675 C 307.850 82.414,307.951 82.515,307.968 82.900 C 307.986 83.285,308.281 83.600,308.624 83.600 C 308.993 83.600,309.131 83.788,308.962 84.062 C 308.772 84.369,308.854 84.414,309.206 84.196 C 309.590 83.959,309.666 84.051,309.482 84.530 C 309.343 84.893,309.357 85.171,309.514 85.148 C 310.220 85.043,310.910 85.223,310.681 85.453 C 310.542 85.592,310.606 86.037,310.823 86.443 C 311.304 87.342,312.800 88.228,312.800 87.614 C 312.800 87.386,312.485 87.186,312.100 87.168 C 311.669 87.149,311.595 87.058,311.908 86.933 C 312.443 86.717,308.139 82.122,307.561 82.292 C 307.389 82.342,307.136 82.027,306.997 81.592 C 306.735 80.766,306.198 80.557,305.837 81.140 M313.200 87.917 C 313.200 88.182,313.380 88.400,313.600 88.400 C 313.820 88.400,313.955 88.625,313.900 88.900 C 313.845 89.175,314.034 89.352,314.319 89.294 C 314.620 89.232,314.788 89.484,314.719 89.894 C 314.635 90.390,314.820 90.562,315.340 90.473 C 315.839 90.388,315.982 90.506,315.778 90.835 C 315.572 91.170,315.643 91.220,316.006 90.996 C 316.386 90.761,316.467 90.849,316.292 91.305 C 316.002 92.060,317.068 93.099,317.582 92.563 C 317.784 92.352,316.939 91.201,315.565 89.817 C 314.264 88.506,313.200 87.651,313.200 87.917 M319.207 94.814 C 319.807 95.935,320.295 96.082,320.245 95.127 C 320.220 94.647,319.897 94.232,319.505 94.174 C 318.945 94.092,318.887 94.216,319.207 94.814 M320.800 95.772 C 320.800 96.143,320.980 96.336,321.200 96.200 C 321.420 96.064,321.623 96.143,321.650 96.376 C 321.678 96.609,321.723 97.025,321.751 97.300 C 321.779 97.575,322.124 97.802,322.518 97.803 C 322.911 97.805,323.403 98.075,323.611 98.403 C 323.818 98.732,323.990 98.820,323.994 98.600 C 323.997 98.380,323.279 97.502,322.400 96.648 C 321.244 95.528,320.800 95.284,320.800 95.772 M324.508 99.629 C 324.474 100.073,324.704 100.400,325.048 100.400 C 325.378 100.400,325.537 100.578,325.403 100.795 C 325.262 101.023,325.424 101.089,325.784 100.951 C 326.254 100.770,326.349 100.895,326.167 101.455 C 325.990 101.999,326.027 102.056,326.307 101.666 C 326.698 101.120,327.436 102.125,327.247 102.949 C 327.203 103.141,327.435 103.195,327.763 103.069 C 328.143 102.924,328.458 103.153,328.632 103.702 C 329.028 104.950,329.866 105.727,330.115 105.078 C 330.221 104.802,329.016 103.289,327.437 101.716 C 325.222 99.511,324.553 99.034,324.508 99.629 M331.391 106.415 C 331.242 106.656,331.243 106.976,331.393 107.127 C 331.652 107.385,331.801 107.429,332.824 107.550 C 333.057 107.578,333.136 107.780,333.000 108.000 C 332.864 108.220,332.943 108.400,333.176 108.400 C 333.853 108.400,333.659 107.869,332.624 106.888 C 331.996 106.292,331.568 106.128,331.391 106.415 M168.184 183.953 C 168.835 184.400,169.453 184.681,169.557 184.576 C 169.853 184.280,169.099 183.717,168.000 183.415 C 167.062 183.156,167.073 183.189,168.184 183.953 M170.000 184.967 C 170.000 185.044,170.471 185.417,171.047 185.794 C 171.718 186.234,172.033 186.300,171.926 185.978 C 171.779 185.537,170.000 184.603,170.000 184.967 M172.800 186.821 C 174.210 187.781,175.600 188.394,175.600 188.056 C 175.600 187.855,174.988 187.401,174.240 187.046 C 172.720 186.325,171.878 186.193,172.800 186.821 M176.766 189.121 C 178.819 190.565,180.800 191.630,180.800 191.290 C 180.800 191.095,180.305 190.680,179.700 190.368 C 179.095 190.056,178.510 189.711,178.400 189.601 C 178.032 189.231,176.414 188.400,176.105 188.421 C 175.937 188.433,176.235 188.748,176.766 189.121 M181.600 191.983 C 182.806 192.875,183.600 193.224,183.600 192.861 C 183.600 192.659,183.285 192.382,182.900 192.246 C 182.515 192.111,181.930 191.896,181.600 191.769 C 181.067 191.565,181.067 191.588,181.600 191.983 M184.600 193.805 C 185.983 194.939,187.609 195.690,187.379 195.088 C 187.210 194.649,186.221 194.094,184.200 193.306 C 183.980 193.220,184.160 193.445,184.600 193.805 M188.000 195.734 C 188.000 195.837,188.601 196.275,189.335 196.708 C 190.069 197.141,191.152 197.812,191.741 198.198 C 192.697 198.825,192.786 198.830,192.563 198.247 C 192.425 197.887,191.879 197.485,191.351 197.352 C 190.822 197.219,190.257 196.884,190.095 196.608 C 189.807 196.116,188.000 195.362,188.000 195.734 M194.184 199.553 C 194.835 200.000,195.453 200.281,195.557 200.176 C 195.853 199.880,195.099 199.317,194.000 199.015 C 193.062 198.756,193.073 198.789,194.184 199.553 M196.794 201.182 C 197.341 201.602,197.880 201.853,197.993 201.740 C 198.248 201.485,196.802 200.397,196.224 200.409 C 195.991 200.414,196.247 200.761,196.794 201.182 M199.400 202.715 C 200.060 203.142,200.678 203.422,200.773 203.339 C 201.065 203.083,200.256 202.505,199.200 202.215 C 198.286 201.963,198.303 202.006,199.400 202.715 M203.400 205.133 C 207.606 207.789,209.600 208.846,209.600 208.417 C 209.600 208.188,209.364 208.000,209.075 208.000 C 208.787 208.000,208.202 207.685,207.775 207.300 C 207.349 206.915,206.460 206.330,205.800 206.001 C 205.140 205.671,204.510 205.311,204.400 205.201 C 204.020 204.819,201.675 203.600,201.338 203.608 C 201.152 203.613,202.080 204.299,203.400 205.133 M210.766 209.485 C 212.696 210.913,216.386 212.829,216.181 212.296 C 216.066 211.996,215.348 211.525,214.586 211.249 C 213.824 210.974,213.200 210.597,213.200 210.413 C 213.200 210.132,212.106 209.584,210.200 208.911 C 209.980 208.833,210.235 209.091,210.766 209.485 M217.214 213.336 C 218.277 214.310,221.600 216.042,221.600 215.622 C 221.600 215.396,220.964 214.945,220.186 214.620 C 219.408 214.295,218.495 213.753,218.157 213.415 C 217.819 213.077,217.337 212.800,217.086 212.800 C 216.807 212.800,216.857 213.009,217.214 213.336 M222.766 216.721 C 224.982 218.279,226.800 219.217,226.800 218.802 C 226.800 218.558,226.260 218.170,225.600 217.940 C 224.940 217.710,224.400 217.388,224.400 217.225 C 224.400 216.922,222.591 215.983,222.081 216.021 C 221.927 216.033,222.235 216.348,222.766 216.721 M227.600 219.620 C 228.932 220.523,229.600 220.810,229.600 220.478 C 229.600 220.286,229.142 219.920,228.581 219.664 C 227.329 219.094,226.789 219.069,227.600 219.620 M230.769 221.509 C 232.675 222.867,235.600 224.410,235.600 224.057 C 235.600 223.859,235.060 223.473,234.400 223.200 C 233.740 222.927,233.200 222.566,233.200 222.398 C 233.200 222.230,232.885 221.985,232.500 221.853 C 232.115 221.721,231.350 221.434,230.800 221.216 L 229.800 220.818 230.769 221.509 M236.000 224.528 C 236.000 224.635,238.025 225.931,240.500 227.408 C 242.975 228.884,245.585 230.447,246.300 230.879 C 247.299 231.483,247.547 231.527,247.371 231.069 C 247.245 230.741,246.738 230.371,246.245 230.247 C 245.751 230.123,244.927 229.657,244.413 229.211 C 243.898 228.765,243.244 228.400,242.959 228.400 C 242.673 228.400,242.296 228.170,242.120 227.889 C 241.944 227.607,241.035 227.040,240.100 226.628 C 239.165 226.216,238.400 225.747,238.400 225.586 C 238.400 225.425,238.085 225.182,237.700 225.046 C 237.315 224.911,236.775 224.695,236.500 224.566 C 236.225 224.438,236.000 224.421,236.000 224.528 M248.576 232.213 C 249.004 232.536,249.499 232.800,249.676 232.800 C 250.480 232.800,249.852 233.578,248.208 234.617 C 246.138 235.925,246.043 236.315,248.035 235.326 C 250.625 234.039,251.115 232.854,249.381 232.064 C 247.998 231.434,247.635 231.501,248.576 232.213 M243.479 237.456 C 242.202 238.245,241.239 238.973,241.340 239.073 C 241.542 239.276,243.084 238.461,243.887 237.726 C 244.172 237.466,244.764 237.138,245.202 236.999 C 245.641 236.860,246.000 236.578,246.000 236.373 C 246.000 235.876,246.116 235.826,243.479 237.456 M236.503 241.680 C 234.250 243.033,232.472 244.205,232.551 244.285 C 232.767 244.501,234.800 243.516,234.800 243.196 C 234.800 243.045,235.610 242.587,236.600 242.178 C 237.590 241.770,238.400 241.315,238.400 241.167 C 238.400 241.018,238.940 240.673,239.600 240.400 C 240.260 240.127,240.800 239.745,240.800 239.551 C 240.800 239.072,241.068 238.939,236.503 241.680 M230.400 245.268 C 229.630 245.738,228.579 246.380,228.065 246.693 C 227.551 247.007,227.213 247.346,227.314 247.447 C 227.565 247.698,229.600 246.744,229.600 246.375 C 229.600 246.212,230.140 245.890,230.800 245.660 C 231.460 245.430,232.000 245.052,232.000 244.821 C 232.000 244.279,232.039 244.268,230.400 245.268 M224.125 249.122 C 222.764 249.935,220.183 251.469,218.390 252.531 C 216.596 253.593,215.218 254.551,215.326 254.659 C 215.535 254.868,217.049 254.091,217.850 253.363 C 218.115 253.122,218.932 252.683,219.666 252.386 C 220.400 252.090,221.144 251.611,221.320 251.323 C 221.496 251.036,221.873 250.800,222.159 250.800 C 222.444 250.800,223.098 250.435,223.613 249.989 C 224.127 249.543,224.951 249.077,225.445 248.953 C 225.938 248.829,226.439 248.474,226.559 248.164 C 226.678 247.854,226.736 247.610,226.687 247.622 C 226.639 247.634,225.486 248.309,224.125 249.122 M211.600 256.611 C 209.950 257.588,208.753 258.390,208.940 258.393 C 209.467 258.404,212.142 257.087,212.702 256.541 C 212.979 256.272,213.564 255.938,214.002 255.799 C 214.441 255.660,214.800 255.378,214.800 255.173 C 214.800 254.685,215.027 254.583,211.600 256.611 M207.256 259.234 C 206.736 259.655,206.477 260.000,206.679 260.000 C 207.215 260.000,208.634 258.900,208.399 258.667 C 208.290 258.558,207.775 258.813,207.256 259.234 M204.584 260.847 C 203.473 261.611,203.462 261.644,204.400 261.385 C 205.499 261.083,206.253 260.520,205.957 260.224 C 205.853 260.119,205.235 260.400,204.584 260.847 M201.994 262.418 C 201.447 262.839,201.191 263.186,201.424 263.191 C 202.002 263.203,203.448 262.115,203.193 261.860 C 203.080 261.747,202.541 261.998,201.994 262.418 M199.465 263.847 C 198.840 264.186,198.410 264.544,198.509 264.642 C 198.811 264.944,200.800 264.048,200.800 263.610 C 200.800 263.107,200.847 263.098,199.465 263.847 M195.659 266.185 C 193.050 267.847,192.696 268.191,194.000 267.797 C 194.550 267.631,195.133 267.269,195.295 266.992 C 195.457 266.716,196.022 266.381,196.551 266.248 C 197.079 266.115,197.616 265.735,197.743 265.403 C 198.038 264.636,198.164 264.589,195.659 266.185 M190.387 269.312 C 187.994 270.705,185.828 272.233,186.800 271.842 C 187.130 271.709,187.715 271.489,188.100 271.354 C 188.485 271.218,188.800 270.985,188.800 270.835 C 188.800 270.686,189.599 270.234,190.577 269.831 C 191.554 269.428,192.448 268.851,192.564 268.549 C 192.831 267.855,192.982 267.802,190.387 269.312 M183.474 273.474 C 181.117 274.915,180.590 275.595,182.526 274.696 C 183.113 274.423,183.595 274.065,183.597 273.900 C 183.599 273.735,183.825 273.594,184.100 273.587 C 184.707 273.572,186.212 272.479,185.966 272.233 C 185.869 272.136,184.748 272.694,183.474 273.474 M178.584 276.447 C 177.473 277.211,177.462 277.244,178.400 276.985 C 179.499 276.683,180.253 276.120,179.957 275.824 C 179.853 275.719,179.235 276.000,178.584 276.447 M175.957 277.969 L 175.000 278.759 175.906 278.531 C 176.822 278.301,177.434 277.701,177.097 277.363 C 176.996 277.263,176.483 277.535,175.957 277.969 M173.465 279.447 C 172.840 279.786,172.410 280.144,172.509 280.242 C 172.811 280.544,174.800 279.648,174.800 279.210 C 174.800 278.707,174.847 278.698,173.465 279.447 M170.957 280.975 C 170.505 281.292,169.250 282.033,168.168 282.624 C 166.412 283.581,166.339 283.671,167.488 283.461 C 168.196 283.331,169.141 282.859,169.588 282.413 C 170.034 281.966,170.651 281.600,170.957 281.600 C 171.264 281.600,171.618 281.330,171.745 281.000 C 172.029 280.260,171.980 280.259,170.957 280.975 " stroke="none" fill="#8cccfc" fill-rule="evenodd"></path></g></svg>